<?xml version="1.0" encoding="UTF-8" standalone="no"?><svg xmlns="http://www.w3.org/2000/svg" xmlns:xlink="http://www.w3.org/1999/xlink" contentScriptType="application/ecmascript" contentStyleType="text/css" height="844px" preserveAspectRatio="none" style="width:669px;height:844px;" version="1.1" viewBox="0 0 669 844" width="669px" zoomAndPan="magnify"><defs><filter height="300%" id="fk8oncjj4v3s1" width="300%" x="-1" y="-1"><feGaussianBlur result="blurOut" stdDeviation="2.0"/><feColorMatrix in="blurOut" result="blurOut2" type="matrix" values="0 0 0 0 0 0 0 0 0 0 0 0 0 0 0 0 0 0 .4 0"/><feOffset dx="4.0" dy="4.0" in="blurOut2" result="blurOut3"/><feBlend in="SourceGraphic" in2="blurOut3" mode="normal"/></filter></defs><g><rect fill="#FEFECE" filter="url(#fk8oncjj4v3s1)" height="36.2969" rx="12.5" ry="12.5" style="stroke: #A80036; stroke-width: 1.5;" width="118" x="10" y="408.4531"/><text fill="#000000" font-family="sans-serif" font-size="14" lengthAdjust="spacingAndGlyphs" textLength="98" x="20" y="431.4482">计算机科学导论</text><rect fill="#FEFECE" filter="url(#fk8oncjj4v3s1)" height="36.2969" rx="12.5" ry="12.5" style="stroke: #A80036; stroke-width: 1.5;" width="76" x="178" y="37.5938"/><text fill="#000000" font-family="sans-serif" font-size="14" lengthAdjust="spacingAndGlyphs" textLength="56" x="188" y="60.5889">数字系统</text><rect fill="#FEFECE" filter="url(#fk8oncjj4v3s1)" height="36.2969" rx="12.5" ry="12.5" style="stroke: #A80036; stroke-width: 1.5;" width="87.3333" x="304" y="28.4453"/><path d="M315,41.9089 L315,51.2422 L316.1667,51.2422 L316.1667,41.9089 L315,41.9089 M317.3333,41.9089 L317.3333,46.5755 L319.6667,46.5755 L319.6667,47.7422 L324.3333,47.7422 L322,45.445 L324.3333,43.0755 L320.8333,43.0755 L320.8333,41.9089 L317.3333,41.9089 " fill="#000000" style="stroke: ; stroke-width: 0.0; stroke-dasharray: ;"/><text fill="#000000" font-family="sans-serif" font-size="14" lengthAdjust="spacingAndGlyphs" textLength="56" x="325.3333" y="51.4404">进制转换</text><text fill="#000000" font-family="sans-serif" font-size="14" lengthAdjust="spacingAndGlyphs" textLength="46" x="444.3333" y="23.9951">10进制</text><path d="M391.3333,46.5938 L401.3333,46.5938 C416.3333,46.5938 416.3333,19.1484 431.3333,19.1484 L441.3333,19.1484 " fill="none" style="stroke: #A80036; stroke-width: 1.0;"/><text fill="#000000" font-family="sans-serif" font-size="14" lengthAdjust="spacingAndGlyphs" textLength="37" x="444.3333" y="42.292">2进制</text><path d="M391.3333,46.5938 L401.3333,46.5938 C416.3333,46.5938 416.3333,37.4453 431.3333,37.4453 L441.3333,37.4453 " fill="none" style="stroke: #A80036; stroke-width: 1.0;"/><text fill="#000000" font-family="sans-serif" font-size="14" lengthAdjust="spacingAndGlyphs" textLength="37" x="444.3333" y="60.5889">8进制</text><path d="M391.3333,46.5938 L401.3333,46.5938 C416.3333,46.5938 416.3333,55.7422 431.3333,55.7422 L441.3333,55.7422 " fill="none" style="stroke: #A80036; stroke-width: 1.0;"/><text fill="#000000" font-family="sans-serif" font-size="14" lengthAdjust="spacingAndGlyphs" textLength="46" x="444.3333" y="78.8857">16进制</text><path d="M391.3333,46.5938 L401.3333,46.5938 C416.3333,46.5938 416.3333,74.0391 431.3333,74.0391 L441.3333,74.0391 " fill="none" style="stroke: #A80036; stroke-width: 1.0;"/><path d="M254,55.7422 L264,55.7422 C279,55.7422 279,46.5938 294,46.5938 L304,46.5938 " fill="none" style="stroke: #A80036; stroke-width: 1.0;"/><text fill="#000000" font-family="sans-serif" font-size="14" lengthAdjust="spacingAndGlyphs" textLength="112" x="307" y="97.1826">非位置化数字系统</text><path d="M254,55.7422 L264,55.7422 C279,55.7422 279,92.3359 294,92.3359 L304,92.3359 " fill="none" style="stroke: #A80036; stroke-width: 1.0;"/><path d="M128,426.6016 L138,426.6016 C153,426.6016 153,55.7422 168,55.7422 L178,55.7422 " fill="none" style="stroke: #A80036; stroke-width: 1.0;"/><rect fill="#FEFECE" filter="url(#fk8oncjj4v3s1)" height="36.2969" rx="12.5" ry="12.5" style="stroke: #A80036; stroke-width: 1.5;" width="76" x="178" y="176.5781"/><text fill="#000000" font-family="sans-serif" font-size="14" lengthAdjust="spacingAndGlyphs" textLength="56" x="188" y="199.5732">数据存储</text><rect fill="#FEFECE" filter="url(#fk8oncjj4v3s1)" height="36.2969" rx="12.5" ry="12.5" style="stroke: #A80036; stroke-width: 1.5;" width="59.3333" x="304" y="111.4844"/><path d="M315,124.9479 L315,134.2813 L316.1667,134.2813 L316.1667,124.9479 L315,124.9479 M317.3333,124.9479 L317.3333,129.6146 L319.6667,129.6146 L319.6667,130.7813 L324.3333,130.7813 L322,128.4841 L324.3333,126.1146 L320.8333,126.1146 L320.8333,124.9479 L317.3333,124.9479 " fill="#000000" style="stroke: ; stroke-width: 0.0; stroke-dasharray: ;"/><text fill="#000000" font-family="sans-serif" font-size="14" lengthAdjust="spacingAndGlyphs" textLength="28" x="325.3333" y="134.4795">单位</text><text fill="#000000" font-family="sans-serif" font-size="14" lengthAdjust="spacingAndGlyphs" textLength="17" x="416.3333" y="116.1826">bit</text><path d="M363.3333,129.6328 L373.3333,129.6328 C388.3333,129.6328 388.3333,111.3359 403.3333,111.3359 L413.3333,111.3359 " fill="none" style="stroke: #A80036; stroke-width: 1.0;"/><text fill="#000000" font-family="sans-serif" font-size="14" lengthAdjust="spacingAndGlyphs" textLength="30" x="416.3333" y="134.4795">byte</text><path d="M363.3333,129.6328 L373.3333,129.6328 C388.3333,129.6328 388.3333,129.6328 403.3333,129.6328 L413.3333,129.6328 " fill="none" style="stroke: #A80036; stroke-width: 1.0;"/><text fill="#000000" font-family="sans-serif" font-size="14" lengthAdjust="spacingAndGlyphs" textLength="53" x="416.3333" y="152.7764">K,M,G,T</text><path d="M363.3333,129.6328 L373.3333,129.6328 C388.3333,129.6328 388.3333,147.9297 403.3333,147.9297 L413.3333,147.9297 " fill="none" style="stroke: #A80036; stroke-width: 1.0;"/><path d="M254,194.7266 L264,194.7266 C279,194.7266 279,129.6328 294,129.6328 L304,129.6328 " fill="none" style="stroke: #A80036; stroke-width: 1.0;"/><rect fill="#FEFECE" filter="url(#fk8oncjj4v3s1)" height="36.2969" rx="12.5" ry="12.5" style="stroke: #A80036; stroke-width: 1.5;" width="48" x="304" y="167.7813"/><text fill="#000000" font-family="sans-serif" font-size="14" lengthAdjust="spacingAndGlyphs" textLength="28" x="314" y="190.7764">文本</text><path d="M406,172.0964 L406,181.4297 L407.1667,181.4297 L407.1667,172.0964 L406,172.0964 M408.3333,172.0964 L408.3333,176.763 L410.6667,176.763 L410.6667,177.9297 L415.3333,177.9297 L413,175.6325 L415.3333,173.263 L411.8333,173.263 L411.8333,172.0964 L408.3333,172.0964 " fill="#000000" style="stroke: ; stroke-width: 0.0; stroke-dasharray: ;"/><text fill="#000000" font-family="sans-serif" font-size="14" lengthAdjust="spacingAndGlyphs" textLength="34" x="416.3333" y="181.6279">ASCII</text><path d="M352,185.9297 L362,185.9297 C377,185.9297 377,176.7813 392,176.7813 L402,176.7813 " fill="none" style="stroke: #A80036; stroke-width: 1.0;"/><text fill="#000000" font-family="sans-serif" font-size="14" lengthAdjust="spacingAndGlyphs" textLength="57" x="405" y="199.9248">Unicode</text><path d="M352,185.9297 L362,185.9297 C377,185.9297 377,195.0781 392,195.0781 L402,195.0781 " fill="none" style="stroke: #A80036; stroke-width: 1.0;"/><path d="M254,194.7266 L264,194.7266 C279,194.7266 279,185.9297 294,185.9297 L304,185.9297 " fill="none" style="stroke: #A80036; stroke-width: 1.0;"/><rect fill="#FEFECE" filter="url(#fk8oncjj4v3s1)" height="36.2969" rx="12.5" ry="12.5" style="stroke: #A80036; stroke-width: 1.5;" width="48" x="304" y="227.9492"/><text fill="#000000" font-family="sans-serif" font-size="14" lengthAdjust="spacingAndGlyphs" textLength="28" x="314" y="250.9443">数字</text><rect fill="#FEFECE" filter="url(#fk8oncjj4v3s1)" height="36.2969" rx="12.5" ry="12.5" style="stroke: #A80036; stroke-width: 1.5;" width="59.3333" x="402" y="223.375"/><path d="M413,236.8385 L413,246.1719 L414.1667,246.1719 L414.1667,236.8385 L413,236.8385 M415.3333,236.8385 L415.3333,241.5052 L417.6667,241.5052 L417.6667,242.6719 L422.3333,242.6719 L420,240.3747 L422.3333,238.0052 L418.8333,238.0052 L418.8333,236.8385 L415.3333,236.8385 " fill="#000000" style="stroke: ; stroke-width: 0.0; stroke-dasharray: ;"/><text fill="#000000" font-family="sans-serif" font-size="14" lengthAdjust="spacingAndGlyphs" textLength="28" x="423.3333" y="246.3701">整数</text><text fill="#000000" font-family="sans-serif" font-size="14" lengthAdjust="spacingAndGlyphs" textLength="42" x="514.3333" y="218.2217">无符号</text><path d="M461.3333,241.5234 L471.3333,241.5234 C486.3333,241.5234 486.3333,213.375 501.3333,213.375 L511.3333,213.375 " fill="none" style="stroke: #A80036; stroke-width: 1.0;"/><rect fill="#FEFECE" filter="url(#fk8oncjj4v3s1)" height="36.2969" rx="12.5" ry="12.5" style="stroke: #A80036; stroke-width: 1.5;" width="62" x="511.3333" y="232.5234"/><text fill="#000000" font-family="sans-serif" font-size="14" lengthAdjust="spacingAndGlyphs" textLength="42" x="521.3333" y="255.5186">有符号</text><text fill="#000000" font-family="sans-serif" font-size="14" lengthAdjust="spacingAndGlyphs" textLength="28" x="626.3333" y="255.5186">补码</text><path d="M573.3333,250.6719 L583.3333,250.6719 C598.3333,250.6719 598.3333,250.6719 613.3333,250.6719 L623.3333,250.6719 " fill="none" style="stroke: #A80036; stroke-width: 1.0;"/><path d="M461.3333,241.5234 L471.3333,241.5234 C486.3333,241.5234 486.3333,250.6719 501.3333,250.6719 L511.3333,250.6719 " fill="none" style="stroke: #A80036; stroke-width: 1.0;"/><path d="M352,246.0977 L362,246.0977 C377,246.0977 377,241.5234 392,241.5234 L402,241.5234 " fill="none" style="stroke: #A80036; stroke-width: 1.0;"/><text fill="#000000" font-family="sans-serif" font-size="14" lengthAdjust="spacingAndGlyphs" textLength="28" x="405" y="283.667">实数</text><path d="M352,246.0977 L362,246.0977 C377,246.0977 377,278.8203 392,278.8203 L402,278.8203 " fill="none" style="stroke: #A80036; stroke-width: 1.0;"/><path d="M254,194.7266 L264,194.7266 C279,194.7266 279,246.0977 294,246.0977 L304,246.0977 " fill="none" style="stroke: #A80036; stroke-width: 1.0;"/><path d="M128,426.6016 L138,426.6016 C153,426.6016 153,194.7266 168,194.7266 L178,194.7266 " fill="none" style="stroke: #A80036; stroke-width: 1.0;"/><rect fill="#FEFECE" filter="url(#fk8oncjj4v3s1)" height="36.2969" rx="12.5" ry="12.5" style="stroke: #A80036; stroke-width: 1.5;" width="76" x="178" y="408.4531"/><text fill="#000000" font-family="sans-serif" font-size="14" lengthAdjust="spacingAndGlyphs" textLength="56" x="188" y="431.4482">数学运算</text><rect fill="#FEFECE" filter="url(#fk8oncjj4v3s1)" height="36.2969" rx="12.5" ry="12.5" style="stroke: #A80036; stroke-width: 1.5;" width="87.3333" x="304" y="306.4141"/><path d="M315,319.8776 L315,329.2109 L316.1667,329.2109 L316.1667,319.8776 L315,319.8776 M317.3333,319.8776 L317.3333,324.5443 L319.6667,324.5443 L319.6667,325.7109 L324.3333,325.7109 L322,323.4138 L324.3333,321.0443 L320.8333,321.0443 L320.8333,319.8776 L317.3333,319.8776 " fill="#000000" style="stroke: ; stroke-width: 0.0; stroke-dasharray: ;"/><text fill="#000000" font-family="sans-serif" font-size="14" lengthAdjust="spacingAndGlyphs" textLength="56" x="325.3333" y="329.4092">逻辑运算</text><text fill="#000000" font-family="sans-serif" font-size="14" lengthAdjust="spacingAndGlyphs" textLength="14" x="444.3333" y="301.9639">与</text><path d="M391.3333,324.5625 L401.3333,324.5625 C416.3333,324.5625 416.3333,297.1172 431.3333,297.1172 L441.3333,297.1172 " fill="none" style="stroke: #A80036; stroke-width: 1.0;"/><text fill="#000000" font-family="sans-serif" font-size="14" lengthAdjust="spacingAndGlyphs" textLength="14" x="444.3333" y="320.2607">或</text><path d="M391.3333,324.5625 L401.3333,324.5625 C416.3333,324.5625 416.3333,315.4141 431.3333,315.4141 L441.3333,315.4141 " fill="none" style="stroke: #A80036; stroke-width: 1.0;"/><text fill="#000000" font-family="sans-serif" font-size="14" lengthAdjust="spacingAndGlyphs" textLength="14" x="444.3333" y="338.5576">非</text><path d="M391.3333,324.5625 L401.3333,324.5625 C416.3333,324.5625 416.3333,333.7109 431.3333,333.7109 L441.3333,333.7109 " fill="none" style="stroke: #A80036; stroke-width: 1.0;"/><text fill="#000000" font-family="sans-serif" font-size="14" lengthAdjust="spacingAndGlyphs" textLength="28" x="444.3333" y="356.8545">异或</text><path d="M391.3333,324.5625 L401.3333,324.5625 C416.3333,324.5625 416.3333,352.0078 431.3333,352.0078 L441.3333,352.0078 " fill="none" style="stroke: #A80036; stroke-width: 1.0;"/><path d="M254,426.6016 L264,426.6016 C279,426.6016 279,324.5625 294,324.5625 L304,324.5625 " fill="none" style="stroke: #A80036; stroke-width: 1.0;"/><rect fill="#FEFECE" filter="url(#fk8oncjj4v3s1)" height="36.2969" rx="12.5" ry="12.5" style="stroke: #A80036; stroke-width: 1.5;" width="76" x="304" y="399.3047"/><text fill="#000000" font-family="sans-serif" font-size="14" lengthAdjust="spacingAndGlyphs" textLength="56" x="314" y="422.2998">移位运算</text><rect fill="#FEFECE" filter="url(#fk8oncjj4v3s1)" height="36.2969" rx="12.5" ry="12.5" style="stroke: #A80036; stroke-width: 1.5;" width="76" x="430" y="371.1563"/><text fill="#000000" font-family="sans-serif" font-size="14" lengthAdjust="spacingAndGlyphs" textLength="56" x="440" y="394.1514">逻辑移位</text><text fill="#000000" font-family="sans-serif" font-size="14" lengthAdjust="spacingAndGlyphs" textLength="51" x="559" y="385.0029">用0填充</text><path d="M506,389.3047 L516,389.3047 C531,389.3047 531,380.1563 546,380.1563 L556,380.1563 " fill="none" style="stroke: #A80036; stroke-width: 1.0;"/><text fill="#000000" font-family="sans-serif" font-size="14" lengthAdjust="spacingAndGlyphs" textLength="98" x="559" y="403.2998">用于无符号整数</text><path d="M506,389.3047 L516,389.3047 C531,389.3047 531,398.4531 546,398.4531 L556,398.4531 " fill="none" style="stroke: #A80036; stroke-width: 1.0;"/><path d="M380,417.4531 L390,417.4531 C405,417.4531 405,389.3047 420,389.3047 L430,389.3047 " fill="none" style="stroke: #A80036; stroke-width: 1.0;"/><rect fill="#FEFECE" filter="url(#fk8oncjj4v3s1)" height="36.2969" rx="12.5" ry="12.5" style="stroke: #A80036; stroke-width: 1.5;" width="76" x="430" y="427.4531"/><text fill="#000000" font-family="sans-serif" font-size="14" lengthAdjust="spacingAndGlyphs" textLength="56" x="440" y="450.4482">算术移位</text><text fill="#000000" font-family="sans-serif" font-size="14" lengthAdjust="spacingAndGlyphs" textLength="84" x="559" y="441.2998">用符号位填充</text><path d="M506,445.6016 L516,445.6016 C531,445.6016 531,436.4531 546,436.4531 L556,436.4531 " fill="none" style="stroke: #A80036; stroke-width: 1.0;"/><text fill="#000000" font-family="sans-serif" font-size="14" lengthAdjust="spacingAndGlyphs" textLength="84" x="559" y="459.5967">用于补码整数</text><path d="M506,445.6016 L516,445.6016 C531,445.6016 531,454.75 546,454.75 L556,454.75 " fill="none" style="stroke: #A80036; stroke-width: 1.0;"/><path d="M380,417.4531 L390,417.4531 C405,417.4531 405,445.6016 420,445.6016 L430,445.6016 " fill="none" style="stroke: #A80036; stroke-width: 1.0;"/><path d="M254,426.6016 L264,426.6016 C279,426.6016 279,417.4531 294,417.4531 L304,417.4531 " fill="none" style="stroke: #A80036; stroke-width: 1.0;"/><rect fill="#FEFECE" filter="url(#fk8oncjj4v3s1)" height="36.2969" rx="12.5" ry="12.5" style="stroke: #A80036; stroke-width: 1.5;" width="87.3333" x="304" y="501.3438"/><path d="M315,514.8073 L315,524.1406 L316.1667,524.1406 L316.1667,514.8073 L315,514.8073 M317.3333,514.8073 L317.3333,519.474 L319.6667,519.474 L319.6667,520.6406 L324.3333,520.6406 L322,518.3435 L324.3333,515.974 L320.8333,515.974 L320.8333,514.8073 L317.3333,514.8073 " fill="#000000" style="stroke: ; stroke-width: 0.0; stroke-dasharray: ;"/><text fill="#000000" font-family="sans-serif" font-size="14" lengthAdjust="spacingAndGlyphs" textLength="56" x="325.3333" y="524.3389">算术运算</text><text fill="#000000" font-family="sans-serif" font-size="14" lengthAdjust="spacingAndGlyphs" textLength="14" x="444.3333" y="487.7451">加</text><path d="M391.3333,519.4922 L401.3333,519.4922 C416.3333,519.4922 416.3333,482.8984 431.3333,482.8984 L441.3333,482.8984 " fill="none" style="stroke: #A80036; stroke-width: 1.0;"/><text fill="#000000" font-family="sans-serif" font-size="14" lengthAdjust="spacingAndGlyphs" textLength="14" x="444.3333" y="506.042">减</text><path d="M391.3333,519.4922 L401.3333,519.4922 C416.3333,519.4922 416.3333,501.1953 431.3333,501.1953 L441.3333,501.1953 " fill="none" style="stroke: #A80036; stroke-width: 1.0;"/><text fill="#000000" font-family="sans-serif" font-size="14" lengthAdjust="spacingAndGlyphs" textLength="14" x="444.3333" y="524.3389">乘</text><path d="M391.3333,519.4922 L401.3333,519.4922 C416.3333,519.4922 416.3333,519.4922 431.3333,519.4922 L441.3333,519.4922 " fill="none" style="stroke: #A80036; stroke-width: 1.0;"/><text fill="#000000" font-family="sans-serif" font-size="14" lengthAdjust="spacingAndGlyphs" textLength="14" x="444.3333" y="542.6357">除</text><path d="M391.3333,519.4922 L401.3333,519.4922 C416.3333,519.4922 416.3333,537.7891 431.3333,537.7891 L441.3333,537.7891 " fill="none" style="stroke: #A80036; stroke-width: 1.0;"/><text fill="#000000" font-family="sans-serif" font-size="14" lengthAdjust="spacingAndGlyphs" textLength="28" x="444.3333" y="560.9326">取余</text><path d="M391.3333,519.4922 L401.3333,519.4922 C416.3333,519.4922 416.3333,556.0859 431.3333,556.0859 L441.3333,556.0859 " fill="none" style="stroke: #A80036; stroke-width: 1.0;"/><path d="M254,426.6016 L264,426.6016 C279,426.6016 279,519.4922 294,519.4922 L304,519.4922 " fill="none" style="stroke: #A80036; stroke-width: 1.0;"/><path d="M128,426.6016 L138,426.6016 C153,426.6016 153,426.6016 168,426.6016 L178,426.6016 " fill="none" style="stroke: #A80036; stroke-width: 1.0;"/><rect fill="#FEFECE" filter="url(#fk8oncjj4v3s1)" height="36.2969" rx="12.5" ry="12.5" style="stroke: #A80036; stroke-width: 1.5;" width="90" x="178" y="686.0703"/><text fill="#000000" font-family="sans-serif" font-size="14" lengthAdjust="spacingAndGlyphs" textLength="70" x="188" y="709.0654">计算机组成</text><rect fill="#FEFECE" filter="url(#fk8oncjj4v3s1)" height="36.2969" rx="12.5" ry="12.5" style="stroke: #A80036; stroke-width: 1.5;" width="90" x="318" y="575.2344"/><text fill="#000000" font-family="sans-serif" font-size="14" lengthAdjust="spacingAndGlyphs" textLength="70" x="328" y="598.2295">中央处理器</text><text fill="#000000" font-family="sans-serif" font-size="14" lengthAdjust="spacingAndGlyphs" textLength="84" x="461" y="579.9326">算术逻辑单元</text><path d="M408,593.3828 L418,593.3828 C433,593.3828 433,575.0859 448,575.0859 L458,575.0859 " fill="none" style="stroke: #A80036; stroke-width: 1.0;"/><text fill="#000000" font-family="sans-serif" font-size="14" lengthAdjust="spacingAndGlyphs" textLength="42" x="461" y="598.2295">寄存器</text><path d="M408,593.3828 L418,593.3828 C433,593.3828 433,593.3828 448,593.3828 L458,593.3828 " fill="none" style="stroke: #A80036; stroke-width: 1.0;"/><text fill="#000000" font-family="sans-serif" font-size="14" lengthAdjust="spacingAndGlyphs" textLength="56" x="461" y="616.5264">控制单元</text><path d="M408,593.3828 L418,593.3828 C433,593.3828 433,611.6797 448,611.6797 L458,611.6797 " fill="none" style="stroke: #A80036; stroke-width: 1.0;"/><path d="M268,704.2188 L278,704.2188 C293,704.2188 293,593.3828 308,593.3828 L318,593.3828 " fill="none" style="stroke: #A80036; stroke-width: 1.0;"/><rect fill="#FEFECE" filter="url(#fk8oncjj4v3s1)" height="36.2969" rx="12.5" ry="12.5" style="stroke: #A80036; stroke-width: 1.5;" width="76" x="318" y="631.5313"/><text fill="#000000" font-family="sans-serif" font-size="14" lengthAdjust="spacingAndGlyphs" textLength="56" x="328" y="654.5264">主存储器</text><text fill="#000000" font-family="sans-serif" font-size="14" lengthAdjust="spacingAndGlyphs" textLength="56" x="447" y="636.2295">地址空间</text><path d="M394,649.6797 L404,649.6797 C419,649.6797 419,631.3828 434,631.3828 L444,631.3828 " fill="none" style="stroke: #A80036; stroke-width: 1.0;"/><text fill="#000000" font-family="sans-serif" font-size="14" lengthAdjust="spacingAndGlyphs" textLength="56" x="447" y="654.5264">高速缓存</text><path d="M394,649.6797 L404,649.6797 C419,649.6797 419,649.6797 434,649.6797 L444,649.6797 " fill="none" style="stroke: #A80036; stroke-width: 1.0;"/><text fill="#000000" font-family="sans-serif" font-size="14" lengthAdjust="spacingAndGlyphs" textLength="28" x="447" y="672.8232">内存</text><path d="M394,649.6797 L404,649.6797 C419,649.6797 419,667.9766 434,667.9766 L444,667.9766 " fill="none" style="stroke: #A80036; stroke-width: 1.0;"/><path d="M268,704.2188 L278,704.2188 C293,704.2188 293,649.6797 308,649.6797 L318,649.6797 " fill="none" style="stroke: #A80036; stroke-width: 1.0;"/><rect fill="#FEFECE" filter="url(#fk8oncjj4v3s1)" height="36.2969" rx="12.5" ry="12.5" style="stroke: #A80036; stroke-width: 1.5;" width="76" x="318" y="713.8672"/><text fill="#000000" font-family="sans-serif" font-size="14" lengthAdjust="spacingAndGlyphs" textLength="56" x="328" y="736.8623">输入输出</text><text fill="#000000" font-family="sans-serif" font-size="14" lengthAdjust="spacingAndGlyphs" textLength="70" x="447" y="709.417">非存储设备</text><text fill="#000000" font-family="sans-serif" font-size="14" lengthAdjust="spacingAndGlyphs" textLength="28" x="570" y="691.1201">键盘</text><path d="M517,704.5703 L527,704.5703 C542,704.5703 542,686.2734 557,686.2734 L567,686.2734 " fill="none" style="stroke: #A80036; stroke-width: 1.0;"/><text fill="#000000" font-family="sans-serif" font-size="14" lengthAdjust="spacingAndGlyphs" textLength="42" x="570" y="709.417">显示器</text><path d="M517,704.5703 L527,704.5703 C542,704.5703 542,704.5703 557,704.5703 L567,704.5703 " fill="none" style="stroke: #A80036; stroke-width: 1.0;"/><text fill="#000000" font-family="sans-serif" font-size="14" lengthAdjust="spacingAndGlyphs" textLength="42" x="570" y="727.7139">打印机</text><path d="M517,704.5703 L527,704.5703 C542,704.5703 542,722.8672 557,722.8672 L567,722.8672 " fill="none" style="stroke: #A80036; stroke-width: 1.0;"/><path d="M394,732.0156 L404,732.0156 C419,732.0156 419,704.5703 434,704.5703 L444,704.5703 " fill="none" style="stroke: #A80036; stroke-width: 1.0;"/><text fill="#000000" font-family="sans-serif" font-size="14" lengthAdjust="spacingAndGlyphs" textLength="56" x="447" y="764.3076">存储设备</text><text fill="#000000" font-family="sans-serif" font-size="14" lengthAdjust="spacingAndGlyphs" textLength="28" x="556" y="746.0107">硬盘</text><path d="M503,759.4609 L513,759.4609 C528,759.4609 528,741.1641 543,741.1641 L553,741.1641 " fill="none" style="stroke: #A80036; stroke-width: 1.0;"/><text fill="#000000" font-family="sans-serif" font-size="14" lengthAdjust="spacingAndGlyphs" textLength="28" x="556" y="764.3076">光盘</text><path d="M503,759.4609 L513,759.4609 C528,759.4609 528,759.4609 543,759.4609 L553,759.4609 " fill="none" style="stroke: #A80036; stroke-width: 1.0;"/><text fill="#000000" font-family="sans-serif" font-size="14" lengthAdjust="spacingAndGlyphs" textLength="29" x="556" y="782.6045">USB</text><path d="M503,759.4609 L513,759.4609 C528,759.4609 528,777.7578 543,777.7578 L553,777.7578 " fill="none" style="stroke: #A80036; stroke-width: 1.0;"/><path d="M394,732.0156 L404,732.0156 C419,732.0156 419,759.4609 434,759.4609 L444,759.4609 " fill="none" style="stroke: #A80036; stroke-width: 1.0;"/><path d="M268,704.2188 L278,704.2188 C293,704.2188 293,732.0156 308,732.0156 L318,732.0156 " fill="none" style="stroke: #A80036; stroke-width: 1.0;"/><rect fill="#FEFECE" filter="url(#fk8oncjj4v3s1)" height="36.2969" rx="12.5" ry="12.5" style="stroke: #A80036; stroke-width: 1.5;" width="118" x="318" y="796.9063"/><text fill="#000000" font-family="sans-serif" font-size="14" lengthAdjust="spacingAndGlyphs" textLength="98" x="328" y="819.9014">程序执行的过程</text><path d="M268,704.2188 L278,704.2188 C293,704.2188 293,815.0547 308,815.0547 L318,815.0547 " fill="none" style="stroke: #A80036; stroke-width: 1.0;"/><path d="M128,426.6016 L138,426.6016 C153,426.6016 153,704.2188 168,704.2188 L178,704.2188 " fill="none" style="stroke: #A80036; stroke-width: 1.0;"/><!--MD5=[02a0ef6ddd745856498d78ae417bfdb0]
@startmindmap
* 计算机科学导论
** 数字系统
*** <&flag>进制转换
****_ 10进制
****_ 2进制
****_ 8进制
****_ 16进制
***_ 非位置化数字系统
** 数据存储
*** <&flag>单位
****_ bit
****_ byte
****_ K,M,G,T
*** 文本
****_ <&flag>ASCII
****_ Unicode
*** 数字
**** <&flag>整数
*****_ 无符号
***** 有符号
******_ 补码
****_ 实数
** 数学运算
*** <&flag>逻辑运算
****_ 与
****_ 或
****_ 非
****_ 异或
*** 移位运算
**** 逻辑移位
*****_ 用0填充
*****_ 用于无符号整数
**** 算术移位
*****_ 用符号位填充
*****_ 用于补码整数
*** <&flag>算术运算
****_ 加
****_ 减
****_ 乘
****_ 除
****_ 取余
** 计算机组成
*** 中央处理器
****_ 算术逻辑单元
****_ 寄存器
****_ 控制单元
*** 主存储器
****_ 地址空间
****_ 高速缓存
****_ 内存
*** 输入输出
****_ 非存储设备
*****_ 键盘
*****_ 显示器
*****_ 打印机
****_ 存储设备
*****_ 硬盘
*****_ 光盘
*****_ USB
*** 程序执行的过程
@endmindmap

PlantUML version 1.2020.00(Sat Jan 11 20:30:53 CST 2020)
(GPL source distribution)
Java Runtime: OpenJDK Runtime Environment
JVM: OpenJDK 64-Bit Server VM
Java Version: 11.0.6+10-post-Ubuntu-1ubuntu119.10.1
Operating System: Linux
Default Encoding: UTF-8
Language: en
Country: US
--></g></svg>