<?xml version="1.0" encoding="UTF-8" standalone="no"?><svg xmlns="http://www.w3.org/2000/svg" xmlns:xlink="http://www.w3.org/1999/xlink" contentScriptType="application/ecmascript" contentStyleType="text/css" height="565px" preserveAspectRatio="none" style="width:669px;height:565px;" version="1.1" viewBox="0 0 669 565" width="669px" zoomAndPan="magnify"><defs><filter height="300%" id="fu6rcs0ft7w1j" width="300%" x="-1" y="-1"><feGaussianBlur result="blurOut" stdDeviation="2.0"/><feColorMatrix in="blurOut" result="blurOut2" type="matrix" values="0 0 0 0 0 0 0 0 0 0 0 0 0 0 0 0 0 0 .4 0"/><feOffset dx="4.0" dy="4.0" in="blurOut2" result="blurOut3"/><feBlend in="SourceGraphic" in2="blurOut3" mode="normal"/></filter></defs><g><rect fill="#FEFECE" filter="url(#fu6rcs0ft7w1j)" height="36.2969" rx="12.5" ry="12.5" style="stroke: #A80036; stroke-width: 1.5;" width="118" x="10" y="265.2461"/><text fill="#000000" font-family="sans-serif" font-size="14" lengthAdjust="spacingAndGlyphs" textLength="98" x="20" y="288.2412">计算机科学导论</text><rect fill="#FEFECE" filter="url(#fu6rcs0ft7w1j)" height="36.2969" rx="12.5" ry="12.5" style="stroke: #A80036; stroke-width: 1.5;" width="76" x="178" y="37.5938"/><text fill="#000000" font-family="sans-serif" font-size="14" lengthAdjust="spacingAndGlyphs" textLength="56" x="188" y="60.5889">数字系统</text><rect fill="#FEFECE" filter="url(#fu6rcs0ft7w1j)" height="36.2969" rx="12.5" ry="12.5" style="stroke: #A80036; stroke-width: 1.5;" width="76" x="304" y="28.4453"/><text fill="#000000" font-family="sans-serif" font-size="14" lengthAdjust="spacingAndGlyphs" textLength="56" x="314" y="51.4404">进制转换</text><text fill="#000000" font-family="sans-serif" font-size="14" lengthAdjust="spacingAndGlyphs" textLength="46" x="433" y="23.9951">10进制</text><path d="M380,46.5938 L390,46.5938 C405,46.5938 405,19.1484 420,19.1484 L430,19.1484 " fill="none" style="stroke: #A80036; stroke-width: 1.0;"/><text fill="#000000" font-family="sans-serif" font-size="14" lengthAdjust="spacingAndGlyphs" textLength="37" x="433" y="42.292">2进制</text><path d="M380,46.5938 L390,46.5938 C405,46.5938 405,37.4453 420,37.4453 L430,37.4453 " fill="none" style="stroke: #A80036; stroke-width: 1.0;"/><text fill="#000000" font-family="sans-serif" font-size="14" lengthAdjust="spacingAndGlyphs" textLength="37" x="433" y="60.5889">8进制</text><path d="M380,46.5938 L390,46.5938 C405,46.5938 405,55.7422 420,55.7422 L430,55.7422 " fill="none" style="stroke: #A80036; stroke-width: 1.0;"/><text fill="#000000" font-family="sans-serif" font-size="14" lengthAdjust="spacingAndGlyphs" textLength="46" x="433" y="78.8857">16进制</text><path d="M380,46.5938 L390,46.5938 C405,46.5938 405,74.0391 420,74.0391 L430,74.0391 " fill="none" style="stroke: #A80036; stroke-width: 1.0;"/><path d="M254,55.7422 L264,55.7422 C279,55.7422 279,46.5938 294,46.5938 L304,46.5938 " fill="none" style="stroke: #A80036; stroke-width: 1.0;"/><text fill="#000000" font-family="sans-serif" font-size="14" lengthAdjust="spacingAndGlyphs" textLength="112" x="307" y="97.1826">非位置化数字系统</text><path d="M254,55.7422 L264,55.7422 C279,55.7422 279,92.3359 294,92.3359 L304,92.3359 " fill="none" style="stroke: #A80036; stroke-width: 1.0;"/><path d="M128,283.3945 L138,283.3945 C153,283.3945 153,55.7422 168,55.7422 L178,55.7422 " fill="none" style="stroke: #A80036; stroke-width: 1.0;"/><rect fill="#FEFECE" filter="url(#fu6rcs0ft7w1j)" height="36.2969" rx="12.5" ry="12.5" style="stroke: #A80036; stroke-width: 1.5;" width="76" x="178" y="172.3555"/><text fill="#000000" font-family="sans-serif" font-size="14" lengthAdjust="spacingAndGlyphs" textLength="56" x="188" y="195.3506">数据存储</text><rect fill="#FEFECE" filter="url(#fu6rcs0ft7w1j)" height="36.2969" rx="12.5" ry="12.5" style="stroke: #A80036; stroke-width: 1.5;" width="48" x="304" y="111.4844"/><text fill="#000000" font-family="sans-serif" font-size="14" lengthAdjust="spacingAndGlyphs" textLength="28" x="314" y="134.4795">单位</text><text fill="#000000" font-family="sans-serif" font-size="14" lengthAdjust="spacingAndGlyphs" textLength="17" x="405" y="116.1826">bit</text><path d="M352,129.6328 L362,129.6328 C377,129.6328 377,111.3359 392,111.3359 L402,111.3359 " fill="none" style="stroke: #A80036; stroke-width: 1.0;"/><text fill="#000000" font-family="sans-serif" font-size="14" lengthAdjust="spacingAndGlyphs" textLength="30" x="405" y="134.4795">byte</text><path d="M352,129.6328 L362,129.6328 C377,129.6328 377,129.6328 392,129.6328 L402,129.6328 " fill="none" style="stroke: #A80036; stroke-width: 1.0;"/><text fill="#000000" font-family="sans-serif" font-size="14" lengthAdjust="spacingAndGlyphs" textLength="53" x="405" y="152.7764">K,M,G,T</text><path d="M352,129.6328 L362,129.6328 C377,129.6328 377,147.9297 392,147.9297 L402,147.9297 " fill="none" style="stroke: #A80036; stroke-width: 1.0;"/><path d="M254,190.5039 L264,190.5039 C279,190.5039 279,129.6328 294,129.6328 L304,129.6328 " fill="none" style="stroke: #A80036; stroke-width: 1.0;"/><rect fill="#FEFECE" filter="url(#fu6rcs0ft7w1j)" height="36.2969" rx="12.5" ry="12.5" style="stroke: #A80036; stroke-width: 1.5;" width="48" x="304" y="167.7813"/><text fill="#000000" font-family="sans-serif" font-size="14" lengthAdjust="spacingAndGlyphs" textLength="28" x="314" y="190.7764">文本</text><text fill="#000000" font-family="sans-serif" font-size="14" lengthAdjust="spacingAndGlyphs" textLength="34" x="405" y="181.6279">ASCII</text><path d="M352,185.9297 L362,185.9297 C377,185.9297 377,176.7813 392,176.7813 L402,176.7813 " fill="none" style="stroke: #A80036; stroke-width: 1.0;"/><text fill="#000000" font-family="sans-serif" font-size="14" lengthAdjust="spacingAndGlyphs" textLength="57" x="405" y="199.9248">Unicode</text><path d="M352,185.9297 L362,185.9297 C377,185.9297 377,195.0781 392,195.0781 L402,195.0781 " fill="none" style="stroke: #A80036; stroke-width: 1.0;"/><path d="M254,190.5039 L264,190.5039 C279,190.5039 279,185.9297 294,185.9297 L304,185.9297 " fill="none" style="stroke: #A80036; stroke-width: 1.0;"/><rect fill="#FEFECE" filter="url(#fu6rcs0ft7w1j)" height="36.2969" rx="12.5" ry="12.5" style="stroke: #A80036; stroke-width: 1.5;" width="48" x="304" y="224.0781"/><text fill="#000000" font-family="sans-serif" font-size="14" lengthAdjust="spacingAndGlyphs" textLength="28" x="314" y="247.0732">数字</text><text fill="#000000" font-family="sans-serif" font-size="14" lengthAdjust="spacingAndGlyphs" textLength="28" x="405" y="247.0732">整数</text><text fill="#000000" font-family="sans-serif" font-size="14" lengthAdjust="spacingAndGlyphs" textLength="42" x="486" y="218.9248">无符号</text><path d="M433,242.2266 L443,242.2266 C458,242.2266 458,214.0781 473,214.0781 L483,214.0781 " fill="none" style="stroke: #A80036; stroke-width: 1.0;"/><rect fill="#FEFECE" filter="url(#fu6rcs0ft7w1j)" height="36.2969" rx="12.5" ry="12.5" style="stroke: #A80036; stroke-width: 1.5;" width="62" x="483" y="233.2266"/><text fill="#000000" font-family="sans-serif" font-size="14" lengthAdjust="spacingAndGlyphs" textLength="42" x="493" y="256.2217">有符号</text><text fill="#000000" font-family="sans-serif" font-size="14" lengthAdjust="spacingAndGlyphs" textLength="28" x="598" y="256.2217">补码</text><path d="M545,251.375 L555,251.375 C570,251.375 570,251.375 585,251.375 L595,251.375 " fill="none" style="stroke: #A80036; stroke-width: 1.0;"/><path d="M433,242.2266 L443,242.2266 C458,242.2266 458,251.375 473,251.375 L483,251.375 " fill="none" style="stroke: #A80036; stroke-width: 1.0;"/><path d="M352,242.2266 L362,242.2266 C377,242.2266 377,242.2266 392,242.2266 L402,242.2266 " fill="none" style="stroke: #A80036; stroke-width: 1.0;"/><text fill="#000000" font-family="sans-serif" font-size="14" lengthAdjust="spacingAndGlyphs" textLength="28" x="405" y="265.3701">实数</text><path d="M352,242.2266 L362,242.2266 C377,242.2266 377,260.5234 392,260.5234 L402,260.5234 " fill="none" style="stroke: #A80036; stroke-width: 1.0;"/><path d="M254,190.5039 L264,190.5039 C279,190.5039 279,242.2266 294,242.2266 L304,242.2266 " fill="none" style="stroke: #A80036; stroke-width: 1.0;"/><path d="M128,283.3945 L138,283.3945 C153,283.3945 153,190.5039 168,190.5039 L178,190.5039 " fill="none" style="stroke: #A80036; stroke-width: 1.0;"/><rect fill="#FEFECE" filter="url(#fu6rcs0ft7w1j)" height="36.2969" rx="12.5" ry="12.5" style="stroke: #A80036; stroke-width: 1.5;" width="76" x="178" y="400.0078"/><text fill="#000000" font-family="sans-serif" font-size="14" lengthAdjust="spacingAndGlyphs" textLength="56" x="188" y="423.0029">数学运算</text><rect fill="#FEFECE" filter="url(#fu6rcs0ft7w1j)" height="36.2969" rx="12.5" ry="12.5" style="stroke: #A80036; stroke-width: 1.5;" width="76" x="304" y="297.9688"/><text fill="#000000" font-family="sans-serif" font-size="14" lengthAdjust="spacingAndGlyphs" textLength="56" x="314" y="320.9639">逻辑运算</text><text fill="#000000" font-family="sans-serif" font-size="14" lengthAdjust="spacingAndGlyphs" textLength="14" x="433" y="293.5186">与</text><path d="M380,316.1172 L390,316.1172 C405,316.1172 405,288.6719 420,288.6719 L430,288.6719 " fill="none" style="stroke: #A80036; stroke-width: 1.0;"/><text fill="#000000" font-family="sans-serif" font-size="14" lengthAdjust="spacingAndGlyphs" textLength="14" x="433" y="311.8154">或</text><path d="M380,316.1172 L390,316.1172 C405,316.1172 405,306.9688 420,306.9688 L430,306.9688 " fill="none" style="stroke: #A80036; stroke-width: 1.0;"/><text fill="#000000" font-family="sans-serif" font-size="14" lengthAdjust="spacingAndGlyphs" textLength="14" x="433" y="330.1123">非</text><path d="M380,316.1172 L390,316.1172 C405,316.1172 405,325.2656 420,325.2656 L430,325.2656 " fill="none" style="stroke: #A80036; stroke-width: 1.0;"/><text fill="#000000" font-family="sans-serif" font-size="14" lengthAdjust="spacingAndGlyphs" textLength="28" x="433" y="348.4092">异或</text><path d="M380,316.1172 L390,316.1172 C405,316.1172 405,343.5625 420,343.5625 L430,343.5625 " fill="none" style="stroke: #A80036; stroke-width: 1.0;"/><path d="M254,418.1563 L264,418.1563 C279,418.1563 279,316.1172 294,316.1172 L304,316.1172 " fill="none" style="stroke: #A80036; stroke-width: 1.0;"/><rect fill="#FEFECE" filter="url(#fu6rcs0ft7w1j)" height="36.2969" rx="12.5" ry="12.5" style="stroke: #A80036; stroke-width: 1.5;" width="76" x="304" y="390.8594"/><text fill="#000000" font-family="sans-serif" font-size="14" lengthAdjust="spacingAndGlyphs" textLength="56" x="314" y="413.8545">移位运算</text><rect fill="#FEFECE" filter="url(#fu6rcs0ft7w1j)" height="36.2969" rx="12.5" ry="12.5" style="stroke: #A80036; stroke-width: 1.5;" width="76" x="430" y="362.7109"/><text fill="#000000" font-family="sans-serif" font-size="14" lengthAdjust="spacingAndGlyphs" textLength="56" x="440" y="385.7061">逻辑移位</text><text fill="#000000" font-family="sans-serif" font-size="14" lengthAdjust="spacingAndGlyphs" textLength="51" x="559" y="376.5576">用0填充</text><path d="M506,380.8594 L516,380.8594 C531,380.8594 531,371.7109 546,371.7109 L556,371.7109 " fill="none" style="stroke: #A80036; stroke-width: 1.0;"/><text fill="#000000" font-family="sans-serif" font-size="14" lengthAdjust="spacingAndGlyphs" textLength="98" x="559" y="394.8545">用于无符号整数</text><path d="M506,380.8594 L516,380.8594 C531,380.8594 531,390.0078 546,390.0078 L556,390.0078 " fill="none" style="stroke: #A80036; stroke-width: 1.0;"/><path d="M380,409.0078 L390,409.0078 C405,409.0078 405,380.8594 420,380.8594 L430,380.8594 " fill="none" style="stroke: #A80036; stroke-width: 1.0;"/><rect fill="#FEFECE" filter="url(#fu6rcs0ft7w1j)" height="36.2969" rx="12.5" ry="12.5" style="stroke: #A80036; stroke-width: 1.5;" width="76" x="430" y="419.0078"/><text fill="#000000" font-family="sans-serif" font-size="14" lengthAdjust="spacingAndGlyphs" textLength="56" x="440" y="442.0029">算术移位</text><text fill="#000000" font-family="sans-serif" font-size="14" lengthAdjust="spacingAndGlyphs" textLength="84" x="559" y="432.8545">用符号位填充</text><path d="M506,437.1563 L516,437.1563 C531,437.1563 531,428.0078 546,428.0078 L556,428.0078 " fill="none" style="stroke: #A80036; stroke-width: 1.0;"/><text fill="#000000" font-family="sans-serif" font-size="14" lengthAdjust="spacingAndGlyphs" textLength="84" x="559" y="451.1514">用于补码整数</text><path d="M506,437.1563 L516,437.1563 C531,437.1563 531,446.3047 546,446.3047 L556,446.3047 " fill="none" style="stroke: #A80036; stroke-width: 1.0;"/><path d="M380,409.0078 L390,409.0078 C405,409.0078 405,437.1563 420,437.1563 L430,437.1563 " fill="none" style="stroke: #A80036; stroke-width: 1.0;"/><path d="M254,418.1563 L264,418.1563 C279,418.1563 279,409.0078 294,409.0078 L304,409.0078 " fill="none" style="stroke: #A80036; stroke-width: 1.0;"/><rect fill="#FEFECE" filter="url(#fu6rcs0ft7w1j)" height="36.2969" rx="12.5" ry="12.5" style="stroke: #A80036; stroke-width: 1.5;" width="76" x="304" y="492.8984"/><text fill="#000000" font-family="sans-serif" font-size="14" lengthAdjust="spacingAndGlyphs" textLength="56" x="314" y="515.8936">算术运算</text><text fill="#000000" font-family="sans-serif" font-size="14" lengthAdjust="spacingAndGlyphs" textLength="14" x="433" y="479.2998">加</text><path d="M380,511.0469 L390,511.0469 C405,511.0469 405,474.4531 420,474.4531 L430,474.4531 " fill="none" style="stroke: #A80036; stroke-width: 1.0;"/><text fill="#000000" font-family="sans-serif" font-size="14" lengthAdjust="spacingAndGlyphs" textLength="14" x="433" y="497.5967">减</text><path d="M380,511.0469 L390,511.0469 C405,511.0469 405,492.75 420,492.75 L430,492.75 " fill="none" style="stroke: #A80036; stroke-width: 1.0;"/><text fill="#000000" font-family="sans-serif" font-size="14" lengthAdjust="spacingAndGlyphs" textLength="14" x="433" y="515.8936">乘</text><path d="M380,511.0469 L390,511.0469 C405,511.0469 405,511.0469 420,511.0469 L430,511.0469 " fill="none" style="stroke: #A80036; stroke-width: 1.0;"/><text fill="#000000" font-family="sans-serif" font-size="14" lengthAdjust="spacingAndGlyphs" textLength="14" x="433" y="534.1904">除</text><path d="M380,511.0469 L390,511.0469 C405,511.0469 405,529.3438 420,529.3438 L430,529.3438 " fill="none" style="stroke: #A80036; stroke-width: 1.0;"/><text fill="#000000" font-family="sans-serif" font-size="14" lengthAdjust="spacingAndGlyphs" textLength="28" x="433" y="552.4873">取余</text><path d="M380,511.0469 L390,511.0469 C405,511.0469 405,547.6406 420,547.6406 L430,547.6406 " fill="none" style="stroke: #A80036; stroke-width: 1.0;"/><path d="M254,418.1563 L264,418.1563 C279,418.1563 279,511.0469 294,511.0469 L304,511.0469 " fill="none" style="stroke: #A80036; stroke-width: 1.0;"/><path d="M128,283.3945 L138,283.3945 C153,283.3945 153,418.1563 168,418.1563 L178,418.1563 " fill="none" style="stroke: #A80036; stroke-width: 1.0;"/><!--MD5=[e7a9d98a570dc04bf061945e3e003fdd]
@startmindmap
* 计算机科学导论
** 数字系统
*** 进制转换
****_ 10进制
****_ 2进制
****_ 8进制
****_ 16进制
***_ 非位置化数字系统
** 数据存储
*** 单位
****_ bit
****_ byte
****_ K,M,G,T
*** 文本
****_ ASCII
****_ Unicode
*** 数字
****_ 整数
*****_ 无符号
***** 有符号
******_ 补码
****_ 实数
** 数学运算
*** 逻辑运算
****_ 与
****_ 或
****_ 非
****_ 异或
*** 移位运算
**** 逻辑移位
*****_ 用0填充
*****_ 用于无符号整数
**** 算术移位
*****_ 用符号位填充
*****_ 用于补码整数
*** 算术运算
****_ 加
****_ 减
****_ 乘
****_ 除
****_ 取余
@endmindmap

PlantUML version 1.2020.00(Sat Jan 11 20:30:53 CST 2020)
(GPL source distribution)
Java Runtime: OpenJDK Runtime Environment
JVM: OpenJDK 64-Bit Server VM
Java Version: 11.0.6+10-post-Ubuntu-1ubuntu119.10.1
Operating System: Linux
Default Encoding: UTF-8
Language: en
Country: US
--></g></svg>