<?xml version="1.0" encoding="UTF-8" standalone="no"?><svg xmlns="http://www.w3.org/2000/svg" xmlns:xlink="http://www.w3.org/1999/xlink" contentScriptType="application/ecmascript" contentStyleType="text/css" height="1021px" preserveAspectRatio="none" style="width:669px;height:1021px;" version="1.1" viewBox="0 0 669 1021" width="669px" zoomAndPan="magnify"><defs><filter height="300%" id="f1nr0bvk6qil11" width="300%" x="-1" y="-1"><feGaussianBlur result="blurOut" stdDeviation="2.0"/><feColorMatrix in="blurOut" result="blurOut2" type="matrix" values="0 0 0 0 0 0 0 0 0 0 0 0 0 0 0 0 0 0 .4 0"/><feOffset dx="4.0" dy="4.0" in="blurOut2" result="blurOut3"/><feBlend in="SourceGraphic" in2="blurOut3" mode="normal"/></filter></defs><g><rect fill="none" height="30.2719" style="stroke: none; stroke-width: 1.0;" width="189" x="213.5" y="15"/><text fill="#000000" font-family="sans-serif" font-size="14" font-weight="bold" lengthAdjust="spacingAndGlyphs" textLength="179" x="218.5" y="36.2399">CS-Introduction Mindmap</text><rect fill="#FEFECE" filter="url(#f1nr0bvk6qil11)" height="40.2719" rx="12.5" ry="12.5" style="stroke: #A80036; stroke-width: 1.5;" width="118" x="10" y="515.8944"/><text fill="#000000" font-family="sans-serif" font-size="14" lengthAdjust="spacingAndGlyphs" textLength="98" x="20" y="542.1343">计算机科学导论</text><rect fill="#FEFECE" filter="url(#f1nr0bvk6qil11)" height="40.2719" rx="12.5" ry="12.5" style="stroke: #A80036; stroke-width: 1.5;" width="76" x="178" y="86.8157"/><text fill="#000000" font-family="sans-serif" font-size="14" lengthAdjust="spacingAndGlyphs" textLength="56" x="188" y="113.0557">数字系统</text><rect fill="#FEFECE" filter="url(#f1nr0bvk6qil11)" height="40.2719" rx="12.5" ry="12.5" style="stroke: #A80036; stroke-width: 1.5;" width="87.3333" x="304" y="75.6798"/><path d="M315,93.1184 L315,102.4517 L316.1667,102.4517 L316.1667,93.1184 L315,93.1184 M317.3333,93.1184 L317.3333,97.785 L319.6667,97.785 L319.6667,98.9517 L324.3333,98.9517 L322,96.6545 L324.3333,94.285 L320.8333,94.285 L320.8333,93.1184 L317.3333,93.1184 " fill="#000000" style="stroke: ; stroke-width: 0.0; stroke-dasharray: ;"/><text fill="#000000" font-family="sans-serif" font-size="14" lengthAdjust="spacingAndGlyphs" textLength="56" x="325.3333" y="101.9197">进制转换</text><text fill="#000000" font-family="sans-serif" font-size="14" lengthAdjust="spacingAndGlyphs" textLength="44" x="444.3333" y="68.5118">10进制</text><path d="M391.3333,95.8157 L401.3333,95.8157 C416.3333,95.8157 416.3333,62.4079 431.3333,62.4079 L441.3333,62.4079 " fill="none" style="stroke: #A80036; stroke-width: 1.0;"/><text fill="#000000" font-family="sans-serif" font-size="14" lengthAdjust="spacingAndGlyphs" textLength="36" x="444.3333" y="90.7838">2进制</text><path d="M391.3333,95.8157 L401.3333,95.8157 C416.3333,95.8157 416.3333,84.6798 431.3333,84.6798 L441.3333,84.6798 " fill="none" style="stroke: #A80036; stroke-width: 1.0;"/><text fill="#000000" font-family="sans-serif" font-size="14" lengthAdjust="spacingAndGlyphs" textLength="36" x="444.3333" y="113.0557">8进制</text><path d="M391.3333,95.8157 L401.3333,95.8157 C416.3333,95.8157 416.3333,106.9517 431.3333,106.9517 L441.3333,106.9517 " fill="none" style="stroke: #A80036; stroke-width: 1.0;"/><text fill="#000000" font-family="sans-serif" font-size="14" lengthAdjust="spacingAndGlyphs" textLength="44" x="444.3333" y="135.3276">16进制</text><path d="M391.3333,95.8157 L401.3333,95.8157 C416.3333,95.8157 416.3333,129.2236 431.3333,129.2236 L441.3333,129.2236 " fill="none" style="stroke: #A80036; stroke-width: 1.0;"/><path d="M254,106.9517 L264,106.9517 C279,106.9517 279,95.8157 294,95.8157 L304,95.8157 " fill="none" style="stroke: #A80036; stroke-width: 1.0;"/><text fill="#000000" font-family="sans-serif" font-size="14" lengthAdjust="spacingAndGlyphs" textLength="112" x="307" y="157.5995">非位置化数字系统</text><path d="M254,106.9517 L264,106.9517 C279,106.9517 279,151.4955 294,151.4955 L304,151.4955 " fill="none" style="stroke: #A80036; stroke-width: 1.0;"/><path d="M128,536.0304 L138,536.0304 C153,536.0304 153,106.9517 168,106.9517 L178,106.9517 " fill="none" style="stroke: #A80036; stroke-width: 1.0;"/><rect fill="#FEFECE" filter="url(#f1nr0bvk6qil11)" height="40.2719" rx="12.5" ry="12.5" style="stroke: #A80036; stroke-width: 1.5;" width="76" x="178" y="247.3112"/><text fill="#000000" font-family="sans-serif" font-size="14" lengthAdjust="spacingAndGlyphs" textLength="56" x="188" y="273.5512">数据存储</text><rect fill="#FEFECE" filter="url(#f1nr0bvk6qil11)" height="40.2719" rx="12.5" ry="12.5" style="stroke: #A80036; stroke-width: 1.5;" width="59.3333" x="304" y="175.9034"/><path d="M315,193.342 L315,202.6753 L316.1667,202.6753 L316.1667,193.342 L315,193.342 M317.3333,193.342 L317.3333,198.0086 L319.6667,198.0086 L319.6667,199.1753 L324.3333,199.1753 L322,196.8781 L324.3333,194.5086 L320.8333,194.5086 L320.8333,193.342 L317.3333,193.342 " fill="#000000" style="stroke: ; stroke-width: 0.0; stroke-dasharray: ;"/><text fill="#000000" font-family="sans-serif" font-size="14" lengthAdjust="spacingAndGlyphs" textLength="28" x="325.3333" y="202.1433">单位</text><text fill="#000000" font-family="sans-serif" font-size="14" lengthAdjust="spacingAndGlyphs" textLength="18" x="416.3333" y="179.8714">bit</text><path d="M363.3333,196.0393 L373.3333,196.0393 C388.3333,196.0393 388.3333,173.7674 403.3333,173.7674 L413.3333,173.7674 " fill="none" style="stroke: #A80036; stroke-width: 1.0;"/><text fill="#000000" font-family="sans-serif" font-size="14" lengthAdjust="spacingAndGlyphs" textLength="29" x="416.3333" y="202.1433">byte</text><path d="M363.3333,196.0393 L373.3333,196.0393 C388.3333,196.0393 388.3333,196.0393 403.3333,196.0393 L413.3333,196.0393 " fill="none" style="stroke: #A80036; stroke-width: 1.0;"/><text fill="#000000" font-family="sans-serif" font-size="14" lengthAdjust="spacingAndGlyphs" textLength="50" x="416.3333" y="224.4152">K,M,G,T</text><path d="M363.3333,196.0393 L373.3333,196.0393 C388.3333,196.0393 388.3333,218.3112 403.3333,218.3112 L413.3333,218.3112 " fill="none" style="stroke: #A80036; stroke-width: 1.0;"/><path d="M254,267.4472 L264,267.4472 C279,267.4472 279,196.0393 294,196.0393 L304,196.0393 " fill="none" style="stroke: #A80036; stroke-width: 1.0;"/><rect fill="#FEFECE" filter="url(#f1nr0bvk6qil11)" height="40.2719" rx="12.5" ry="12.5" style="stroke: #A80036; stroke-width: 1.5;" width="48" x="304" y="236.1753"/><text fill="#000000" font-family="sans-serif" font-size="14" lengthAdjust="spacingAndGlyphs" textLength="28" x="314" y="262.4152">文本</text><path d="M406,242.4779 L406,251.8112 L407.1667,251.8112 L407.1667,242.4779 L406,242.4779 M408.3333,242.4779 L408.3333,247.1446 L410.6667,247.1446 L410.6667,248.3112 L415.3333,248.3112 L413,246.0141 L415.3333,243.6446 L411.8333,243.6446 L411.8333,242.4779 L408.3333,242.4779 " fill="#000000" style="stroke: ; stroke-width: 0.0; stroke-dasharray: ;"/><text fill="#000000" font-family="sans-serif" font-size="14" lengthAdjust="spacingAndGlyphs" textLength="34" x="416.3333" y="251.2793">ASCII</text><path d="M352,256.3112 L362,256.3112 C377,256.3112 377,245.1753 392,245.1753 L402,245.1753 " fill="none" style="stroke: #A80036; stroke-width: 1.0;"/><text fill="#000000" font-family="sans-serif" font-size="14" lengthAdjust="spacingAndGlyphs" textLength="55" x="405" y="273.5512">Unicode</text><path d="M352,256.3112 L362,256.3112 C377,256.3112 377,267.4472 392,267.4472 L402,267.4472 " fill="none" style="stroke: #A80036; stroke-width: 1.0;"/><path d="M254,267.4472 L264,267.4472 C279,267.4472 279,256.3112 294,256.3112 L304,256.3112 " fill="none" style="stroke: #A80036; stroke-width: 1.0;"/><rect fill="#FEFECE" filter="url(#f1nr0bvk6qil11)" height="40.2719" rx="12.5" ry="12.5" style="stroke: #A80036; stroke-width: 1.5;" width="48" x="304" y="305.2871"/><text fill="#000000" font-family="sans-serif" font-size="14" lengthAdjust="spacingAndGlyphs" textLength="28" x="314" y="331.527">数字</text><rect fill="#FEFECE" filter="url(#f1nr0bvk6qil11)" height="40.2719" rx="12.5" ry="12.5" style="stroke: #A80036; stroke-width: 1.5;" width="59.3333" x="402" y="299.7191"/><path d="M413,317.1577 L413,326.491 L414.1667,326.491 L414.1667,317.1577 L413,317.1577 M415.3333,317.1577 L415.3333,321.8244 L417.6667,321.8244 L417.6667,322.991 L422.3333,322.991 L420,320.6939 L422.3333,318.3244 L418.8333,318.3244 L418.8333,317.1577 L415.3333,317.1577 " fill="#000000" style="stroke: ; stroke-width: 0.0; stroke-dasharray: ;"/><text fill="#000000" font-family="sans-serif" font-size="14" lengthAdjust="spacingAndGlyphs" textLength="28" x="423.3333" y="325.959">整数</text><text fill="#000000" font-family="sans-serif" font-size="14" lengthAdjust="spacingAndGlyphs" textLength="42" x="514.3333" y="295.8231">无符号</text><path d="M461.3333,319.8551 L471.3333,319.8551 C486.3333,319.8551 486.3333,289.7191 501.3333,289.7191 L511.3333,289.7191 " fill="none" style="stroke: #A80036; stroke-width: 1.0;"/><rect fill="#FEFECE" filter="url(#f1nr0bvk6qil11)" height="40.2719" rx="12.5" ry="12.5" style="stroke: #A80036; stroke-width: 1.5;" width="62" x="511.3333" y="310.8551"/><text fill="#000000" font-family="sans-serif" font-size="14" lengthAdjust="spacingAndGlyphs" textLength="42" x="521.3333" y="337.095">有符号</text><text fill="#000000" font-family="sans-serif" font-size="14" lengthAdjust="spacingAndGlyphs" textLength="28" x="626.3333" y="337.095">补码</text><path d="M573.3333,330.991 L583.3333,330.991 C598.3333,330.991 598.3333,330.991 613.3333,330.991 L623.3333,330.991 " fill="none" style="stroke: #A80036; stroke-width: 1.0;"/><path d="M461.3333,319.8551 L471.3333,319.8551 C486.3333,319.8551 486.3333,330.991 501.3333,330.991 L511.3333,330.991 " fill="none" style="stroke: #A80036; stroke-width: 1.0;"/><path d="M352,325.423 L362,325.423 C377,325.423 377,319.8551 392,319.8551 L402,319.8551 " fill="none" style="stroke: #A80036; stroke-width: 1.0;"/><text fill="#000000" font-family="sans-serif" font-size="14" lengthAdjust="spacingAndGlyphs" textLength="28" x="405" y="367.231">实数</text><path d="M352,325.423 L362,325.423 C377,325.423 377,361.127 392,361.127 L402,361.127 " fill="none" style="stroke: #A80036; stroke-width: 1.0;"/><path d="M254,267.4472 L264,267.4472 C279,267.4472 279,325.423 294,325.423 L304,325.423 " fill="none" style="stroke: #A80036; stroke-width: 1.0;"/><path d="M128,536.0304 L138,536.0304 C153,536.0304 153,267.4472 168,267.4472 L178,267.4472 " fill="none" style="stroke: #A80036; stroke-width: 1.0;"/><rect fill="#FEFECE" filter="url(#f1nr0bvk6qil11)" height="40.2719" rx="12.5" ry="12.5" style="stroke: #A80036; stroke-width: 1.5;" width="76" x="178" y="512.6225"/><text fill="#000000" font-family="sans-serif" font-size="14" lengthAdjust="spacingAndGlyphs" textLength="56" x="188" y="538.8624">数学运算</text><rect fill="#FEFECE" filter="url(#f1nr0bvk6qil11)" height="40.2719" rx="12.5" ry="12.5" style="stroke: #A80036; stroke-width: 1.5;" width="87.3333" x="304" y="396.6708"/><path d="M315,414.1094 L315,423.4427 L316.1667,423.4427 L316.1667,414.1094 L315,414.1094 M317.3333,414.1094 L317.3333,418.7761 L319.6667,418.7761 L319.6667,419.9427 L324.3333,419.9427 L322,417.6456 L324.3333,415.2761 L320.8333,415.2761 L320.8333,414.1094 L317.3333,414.1094 " fill="#000000" style="stroke: ; stroke-width: 0.0; stroke-dasharray: ;"/><text fill="#000000" font-family="sans-serif" font-size="14" lengthAdjust="spacingAndGlyphs" textLength="56" x="325.3333" y="422.9107">逻辑运算</text><text fill="#000000" font-family="sans-serif" font-size="14" lengthAdjust="spacingAndGlyphs" textLength="14" x="444.3333" y="389.5029">与</text><path d="M391.3333,416.8068 L401.3333,416.8068 C416.3333,416.8068 416.3333,383.3989 431.3333,383.3989 L441.3333,383.3989 " fill="none" style="stroke: #A80036; stroke-width: 1.0;"/><text fill="#000000" font-family="sans-serif" font-size="14" lengthAdjust="spacingAndGlyphs" textLength="14" x="444.3333" y="411.7748">或</text><path d="M391.3333,416.8068 L401.3333,416.8068 C416.3333,416.8068 416.3333,405.6708 431.3333,405.6708 L441.3333,405.6708 " fill="none" style="stroke: #A80036; stroke-width: 1.0;"/><text fill="#000000" font-family="sans-serif" font-size="14" lengthAdjust="spacingAndGlyphs" textLength="14" x="444.3333" y="434.0467">非</text><path d="M391.3333,416.8068 L401.3333,416.8068 C416.3333,416.8068 416.3333,427.9427 431.3333,427.9427 L441.3333,427.9427 " fill="none" style="stroke: #A80036; stroke-width: 1.0;"/><text fill="#000000" font-family="sans-serif" font-size="14" lengthAdjust="spacingAndGlyphs" textLength="28" x="444.3333" y="456.3186">异或</text><path d="M391.3333,416.8068 L401.3333,416.8068 C416.3333,416.8068 416.3333,450.2146 431.3333,450.2146 L441.3333,450.2146 " fill="none" style="stroke: #A80036; stroke-width: 1.0;"/><path d="M254,532.7585 L264,532.7585 C279,532.7585 279,416.8068 294,416.8068 L304,416.8068 " fill="none" style="stroke: #A80036; stroke-width: 1.0;"/><rect fill="#FEFECE" filter="url(#f1nr0bvk6qil11)" height="40.2719" rx="12.5" ry="12.5" style="stroke: #A80036; stroke-width: 1.5;" width="76" x="304" y="501.4865"/><text fill="#000000" font-family="sans-serif" font-size="14" lengthAdjust="spacingAndGlyphs" textLength="56" x="314" y="527.7265">移位运算</text><rect fill="#FEFECE" filter="url(#f1nr0bvk6qil11)" height="40.2719" rx="12.5" ry="12.5" style="stroke: #A80036; stroke-width: 1.5;" width="76" x="430" y="471.3506"/><text fill="#000000" font-family="sans-serif" font-size="14" lengthAdjust="spacingAndGlyphs" textLength="56" x="440" y="497.5905">逻辑移位</text><text fill="#000000" font-family="sans-serif" font-size="14" lengthAdjust="spacingAndGlyphs" textLength="50" x="559" y="486.4546">用0填充</text><path d="M506,491.4865 L516,491.4865 C531,491.4865 531,480.3506 546,480.3506 L556,480.3506 " fill="none" style="stroke: #A80036; stroke-width: 1.0;"/><text fill="#000000" font-family="sans-serif" font-size="14" lengthAdjust="spacingAndGlyphs" textLength="98" x="559" y="508.7265">用于无符号整数</text><path d="M506,491.4865 L516,491.4865 C531,491.4865 531,502.6225 546,502.6225 L556,502.6225 " fill="none" style="stroke: #A80036; stroke-width: 1.0;"/><path d="M380,521.6225 L390,521.6225 C405,521.6225 405,491.4865 420,491.4865 L430,491.4865 " fill="none" style="stroke: #A80036; stroke-width: 1.0;"/><rect fill="#FEFECE" filter="url(#f1nr0bvk6qil11)" height="40.2719" rx="12.5" ry="12.5" style="stroke: #A80036; stroke-width: 1.5;" width="76" x="430" y="531.6225"/><text fill="#000000" font-family="sans-serif" font-size="14" lengthAdjust="spacingAndGlyphs" textLength="56" x="440" y="557.8624">算术移位</text><text fill="#000000" font-family="sans-serif" font-size="14" lengthAdjust="spacingAndGlyphs" textLength="84" x="559" y="546.7265">用符号位填充</text><path d="M506,551.7585 L516,551.7585 C531,551.7585 531,540.6225 546,540.6225 L556,540.6225 " fill="none" style="stroke: #A80036; stroke-width: 1.0;"/><text fill="#000000" font-family="sans-serif" font-size="14" lengthAdjust="spacingAndGlyphs" textLength="84" x="559" y="568.9984">用于补码整数</text><path d="M506,551.7585 L516,551.7585 C531,551.7585 531,562.8944 546,562.8944 L556,562.8944 " fill="none" style="stroke: #A80036; stroke-width: 1.0;"/><path d="M380,521.6225 L390,521.6225 C405,521.6225 405,551.7585 420,551.7585 L430,551.7585 " fill="none" style="stroke: #A80036; stroke-width: 1.0;"/><path d="M254,532.7585 L264,532.7585 C279,532.7585 279,521.6225 294,521.6225 L304,521.6225 " fill="none" style="stroke: #A80036; stroke-width: 1.0;"/><rect fill="#FEFECE" filter="url(#f1nr0bvk6qil11)" height="40.2719" rx="12.5" ry="12.5" style="stroke: #A80036; stroke-width: 1.5;" width="87.3333" x="304" y="617.4382"/><path d="M315,634.8768 L315,644.2101 L316.1667,644.2101 L316.1667,634.8768 L315,634.8768 M317.3333,634.8768 L317.3333,639.5435 L319.6667,639.5435 L319.6667,640.7101 L324.3333,640.7101 L322,638.413 L324.3333,636.0435 L320.8333,636.0435 L320.8333,634.8768 L317.3333,634.8768 " fill="#000000" style="stroke: ; stroke-width: 0.0; stroke-dasharray: ;"/><text fill="#000000" font-family="sans-serif" font-size="14" lengthAdjust="spacingAndGlyphs" textLength="56" x="325.3333" y="643.6782">算术运算</text><text fill="#000000" font-family="sans-serif" font-size="14" lengthAdjust="spacingAndGlyphs" textLength="14" x="444.3333" y="599.1343">加</text><path d="M391.3333,637.5742 L401.3333,637.5742 C416.3333,637.5742 416.3333,593.0304 431.3333,593.0304 L441.3333,593.0304 " fill="none" style="stroke: #A80036; stroke-width: 1.0;"/><text fill="#000000" font-family="sans-serif" font-size="14" lengthAdjust="spacingAndGlyphs" textLength="14" x="444.3333" y="621.4063">减</text><path d="M391.3333,637.5742 L401.3333,637.5742 C416.3333,637.5742 416.3333,615.3023 431.3333,615.3023 L441.3333,615.3023 " fill="none" style="stroke: #A80036; stroke-width: 1.0;"/><text fill="#000000" font-family="sans-serif" font-size="14" lengthAdjust="spacingAndGlyphs" textLength="14" x="444.3333" y="643.6782">乘</text><path d="M391.3333,637.5742 L401.3333,637.5742 C416.3333,637.5742 416.3333,637.5742 431.3333,637.5742 L441.3333,637.5742 " fill="none" style="stroke: #A80036; stroke-width: 1.0;"/><text fill="#000000" font-family="sans-serif" font-size="14" lengthAdjust="spacingAndGlyphs" textLength="14" x="444.3333" y="665.9501">除</text><path d="M391.3333,637.5742 L401.3333,637.5742 C416.3333,637.5742 416.3333,659.8461 431.3333,659.8461 L441.3333,659.8461 " fill="none" style="stroke: #A80036; stroke-width: 1.0;"/><text fill="#000000" font-family="sans-serif" font-size="14" lengthAdjust="spacingAndGlyphs" textLength="28" x="444.3333" y="688.222">取余</text><path d="M391.3333,637.5742 L401.3333,637.5742 C416.3333,637.5742 416.3333,682.118 431.3333,682.118 L441.3333,682.118 " fill="none" style="stroke: #A80036; stroke-width: 1.0;"/><path d="M254,532.7585 L264,532.7585 C279,532.7585 279,637.5742 294,637.5742 L304,637.5742 " fill="none" style="stroke: #A80036; stroke-width: 1.0;"/><path d="M128,536.0304 L138,536.0304 C153,536.0304 153,532.7585 168,532.7585 L178,532.7585 " fill="none" style="stroke: #A80036; stroke-width: 1.0;"/><rect fill="#FEFECE" filter="url(#f1nr0bvk6qil11)" height="40.2719" rx="12.5" ry="12.5" style="stroke: #A80036; stroke-width: 1.5;" width="90" x="178" y="836.8854"/><text fill="#000000" font-family="sans-serif" font-size="14" lengthAdjust="spacingAndGlyphs" textLength="70" x="188" y="863.1254">计算机组成</text><rect fill="#FEFECE" filter="url(#f1nr0bvk6qil11)" height="40.2719" rx="12.5" ry="12.5" style="stroke: #A80036; stroke-width: 1.5;" width="90" x="318" y="706.5259"/><text fill="#000000" font-family="sans-serif" font-size="14" lengthAdjust="spacingAndGlyphs" textLength="70" x="328" y="732.7658">中央处理器</text><text fill="#000000" font-family="sans-serif" font-size="14" lengthAdjust="spacingAndGlyphs" textLength="84" x="461" y="710.4939">算术逻辑单元</text><path d="M408,726.6618 L418,726.6618 C433,726.6618 433,704.3899 448,704.3899 L458,704.3899 " fill="none" style="stroke: #A80036; stroke-width: 1.0;"/><text fill="#000000" font-family="sans-serif" font-size="14" lengthAdjust="spacingAndGlyphs" textLength="42" x="461" y="732.7658">寄存器</text><path d="M408,726.6618 L418,726.6618 C433,726.6618 433,726.6618 448,726.6618 L458,726.6618 " fill="none" style="stroke: #A80036; stroke-width: 1.0;"/><text fill="#000000" font-family="sans-serif" font-size="14" lengthAdjust="spacingAndGlyphs" textLength="56" x="461" y="755.0377">控制单元</text><path d="M408,726.6618 L418,726.6618 C433,726.6618 433,748.9337 448,748.9337 L458,748.9337 " fill="none" style="stroke: #A80036; stroke-width: 1.0;"/><path d="M268,857.0214 L278,857.0214 C293,857.0214 293,726.6618 308,726.6618 L318,726.6618 " fill="none" style="stroke: #A80036; stroke-width: 1.0;"/><rect fill="#FEFECE" filter="url(#f1nr0bvk6qil11)" height="40.2719" rx="12.5" ry="12.5" style="stroke: #A80036; stroke-width: 1.5;" width="76" x="318" y="773.3416"/><text fill="#000000" font-family="sans-serif" font-size="14" lengthAdjust="spacingAndGlyphs" textLength="56" x="328" y="799.5815">主存储器</text><text fill="#000000" font-family="sans-serif" font-size="14" lengthAdjust="spacingAndGlyphs" textLength="56" x="447" y="777.3096">地址空间</text><path d="M394,793.4776 L404,793.4776 C419,793.4776 419,771.2057 434,771.2057 L444,771.2057 " fill="none" style="stroke: #A80036; stroke-width: 1.0;"/><text fill="#000000" font-family="sans-serif" font-size="14" lengthAdjust="spacingAndGlyphs" textLength="56" x="447" y="799.5815">高速缓存</text><path d="M394,793.4776 L404,793.4776 C419,793.4776 419,793.4776 434,793.4776 L444,793.4776 " fill="none" style="stroke: #A80036; stroke-width: 1.0;"/><text fill="#000000" font-family="sans-serif" font-size="14" lengthAdjust="spacingAndGlyphs" textLength="28" x="447" y="821.8535">内存</text><path d="M394,793.4776 L404,793.4776 C419,793.4776 419,815.7495 434,815.7495 L444,815.7495 " fill="none" style="stroke: #A80036; stroke-width: 1.0;"/><path d="M268,857.0214 L278,857.0214 C293,857.0214 293,793.4776 308,793.4776 L318,793.4776 " fill="none" style="stroke: #A80036; stroke-width: 1.0;"/><rect fill="#FEFECE" filter="url(#f1nr0bvk6qil11)" height="40.2719" rx="12.5" ry="12.5" style="stroke: #A80036; stroke-width: 1.5;" width="76" x="318" y="873.5652"/><text fill="#000000" font-family="sans-serif" font-size="14" lengthAdjust="spacingAndGlyphs" textLength="56" x="328" y="899.8051">输入输出</text><text fill="#000000" font-family="sans-serif" font-size="14" lengthAdjust="spacingAndGlyphs" textLength="70" x="447" y="866.3973">非存储设备</text><text fill="#000000" font-family="sans-serif" font-size="14" lengthAdjust="spacingAndGlyphs" textLength="28" x="570" y="844.1254">键盘</text><path d="M517,860.2933 L527,860.2933 C542,860.2933 542,838.0214 557,838.0214 L567,838.0214 " fill="none" style="stroke: #A80036; stroke-width: 1.0;"/><text fill="#000000" font-family="sans-serif" font-size="14" lengthAdjust="spacingAndGlyphs" textLength="42" x="570" y="866.3973">显示器</text><path d="M517,860.2933 L527,860.2933 C542,860.2933 542,860.2933 557,860.2933 L567,860.2933 " fill="none" style="stroke: #A80036; stroke-width: 1.0;"/><text fill="#000000" font-family="sans-serif" font-size="14" lengthAdjust="spacingAndGlyphs" textLength="42" x="570" y="888.6692">打印机</text><path d="M517,860.2933 L527,860.2933 C542,860.2933 542,882.5652 557,882.5652 L567,882.5652 " fill="none" style="stroke: #A80036; stroke-width: 1.0;"/><path d="M394,893.7012 L404,893.7012 C419,893.7012 419,860.2933 434,860.2933 L444,860.2933 " fill="none" style="stroke: #A80036; stroke-width: 1.0;"/><text fill="#000000" font-family="sans-serif" font-size="14" lengthAdjust="spacingAndGlyphs" textLength="56" x="447" y="933.213">存储设备</text><text fill="#000000" font-family="sans-serif" font-size="14" lengthAdjust="spacingAndGlyphs" textLength="28" x="556" y="910.9411">硬盘</text><path d="M503,927.109 L513,927.109 C528,927.109 528,904.8371 543,904.8371 L553,904.8371 " fill="none" style="stroke: #A80036; stroke-width: 1.0;"/><text fill="#000000" font-family="sans-serif" font-size="14" lengthAdjust="spacingAndGlyphs" textLength="28" x="556" y="933.213">光盘</text><path d="M503,927.109 L513,927.109 C528,927.109 528,927.109 543,927.109 L553,927.109 " fill="none" style="stroke: #A80036; stroke-width: 1.0;"/><text fill="#000000" font-family="sans-serif" font-size="14" lengthAdjust="spacingAndGlyphs" textLength="27" x="556" y="955.4849">USB</text><path d="M503,927.109 L513,927.109 C528,927.109 528,949.381 543,949.381 L553,949.381 " fill="none" style="stroke: #A80036; stroke-width: 1.0;"/><path d="M394,893.7012 L404,893.7012 C419,893.7012 419,927.109 434,927.109 L444,927.109 " fill="none" style="stroke: #A80036; stroke-width: 1.0;"/><path d="M268,857.0214 L278,857.0214 C293,857.0214 293,893.7012 308,893.7012 L318,893.7012 " fill="none" style="stroke: #A80036; stroke-width: 1.0;"/><rect fill="#FEFECE" filter="url(#f1nr0bvk6qil11)" height="40.2719" rx="12.5" ry="12.5" style="stroke: #A80036; stroke-width: 1.5;" width="129.3333" x="318" y="970.5169"/><path d="M329,987.9555 L329,997.2888 L330.1667,997.2888 L330.1667,987.9555 L329,987.9555 M331.3333,987.9555 L331.3333,992.6222 L333.6667,992.6222 L333.6667,993.7888 L338.3333,993.7888 L336,991.4917 L338.3333,989.1222 L334.8333,989.1222 L334.8333,987.9555 L331.3333,987.9555 " fill="#000000" style="stroke: ; stroke-width: 0.0; stroke-dasharray: ;"/><text fill="#000000" font-family="sans-serif" font-size="14" lengthAdjust="spacingAndGlyphs" textLength="98" x="339.3333" y="996.7568">程序执行的过程</text><path d="M268,857.0214 L278,857.0214 C293,857.0214 293,990.6529 308,990.6529 L318,990.6529 " fill="none" style="stroke: #A80036; stroke-width: 1.0;"/><path d="M128,536.0304 L138,536.0304 C153,536.0304 153,857.0214 168,857.0214 L178,857.0214 " fill="none" style="stroke: #A80036; stroke-width: 1.0;"/><rect fill="#FEFECE" filter="url(#f1nr0bvk6qil11)" height="40.2719" rx="12.5" ry="12.5" style="stroke: #A80036; stroke-width: 1.5;" width="90" x="178" y="897.1573"/><text fill="#000000" font-family="sans-serif" font-size="14" lengthAdjust="spacingAndGlyphs" textLength="70" x="188" y="923.3973">计算机网络</text><path d="M128,536.0304 L138,536.0304 C153,536.0304 153,917.2933 168,917.2933 L178,917.2933 " fill="none" style="stroke: #A80036; stroke-width: 1.0;"/><rect fill="#FEFECE" filter="url(#f1nr0bvk6qil11)" height="40.2719" rx="12.5" ry="12.5" style="stroke: #A80036; stroke-width: 1.5;" width="76" x="178" y="957.4293"/><text fill="#000000" font-family="sans-serif" font-size="14" lengthAdjust="spacingAndGlyphs" textLength="56" x="188" y="983.6692">操作系统</text><path d="M128,536.0304 L138,536.0304 C153,536.0304 153,977.5652 168,977.5652 L178,977.5652 " fill="none" style="stroke: #A80036; stroke-width: 1.0;"/><!--MD5=[a080716a053425e42f41ce48d6ec73cb]
@startmindmap
title CS-Introduction Mindmap
* 计算机科学导论
** 数字系统
*** <&flag>进制转换
****_ 10进制
****_ 2进制
****_ 8进制
****_ 16进制
***_ 非位置化数字系统
** 数据存储
*** <&flag>单位
****_ bit
****_ byte
****_ K,M,G,T
*** 文本
****_ <&flag>ASCII
****_ Unicode
*** 数字
**** <&flag>整数
*****_ 无符号
***** 有符号
******_ 补码
****_ 实数
** 数学运算
*** <&flag>逻辑运算
****_ 与
****_ 或
****_ 非
****_ 异或
*** 移位运算
**** 逻辑移位
*****_ 用0填充
*****_ 用于无符号整数
**** 算术移位
*****_ 用符号位填充
*****_ 用于补码整数
*** <&flag>算术运算
****_ 加
****_ 减
****_ 乘
****_ 除
****_ 取余
** 计算机组成
*** 中央处理器
****_ 算术逻辑单元
****_ 寄存器
****_ 控制单元
*** 主存储器
****_ 地址空间
****_ 高速缓存
****_ 内存
*** 输入输出
****_ 非存储设备
*****_ 键盘
*****_ 显示器
*****_ 打印机
****_ 存储设备
*****_ 硬盘
*****_ 光盘
*****_ USB
*** <&flag>程序执行的过程
** 计算机网络
** 操作系统
@endmindmap

PlantUML version 1.2020.06(Sun Apr 05 20:38:32 CST 2020)
(GPL source distribution)
Java Runtime: OpenJDK Runtime Environment
JVM: OpenJDK 64-Bit Server VM
Java Version: 11.0.7+10-post-Ubuntu-2ubuntu219.10
Operating System: Linux
Default Encoding: UTF-8
Language: en
Country: US
--></g></svg>