<?xml version="1.0" encoding="UTF-8" standalone="no"?><svg xmlns="http://www.w3.org/2000/svg" xmlns:xlink="http://www.w3.org/1999/xlink" contentScriptType="application/ecmascript" contentStyleType="text/css" height="883px" preserveAspectRatio="none" style="width:669px;height:883px;" version="1.1" viewBox="0 0 669 883" width="669px" zoomAndPan="magnify"><defs><filter height="300%" id="f1nr0bvk6qil11" width="300%" x="-1" y="-1"><feGaussianBlur result="blurOut" stdDeviation="2.0"/><feColorMatrix in="blurOut" result="blurOut2" type="matrix" values="0 0 0 0 0 0 0 0 0 0 0 0 0 0 0 0 0 0 .4 0"/><feOffset dx="4.0" dy="4.0" in="blurOut2" result="blurOut3"/><feBlend in="SourceGraphic" in2="blurOut3" mode="normal"/></filter></defs><g><rect fill="none" height="26.2969" style="stroke: none; stroke-width: 1.0;" width="208" x="204" y="15"/><text fill="#000000" font-family="sans-serif" font-size="14" font-weight="bold" lengthAdjust="spacingAndGlyphs" textLength="198" x="209" y="32.9951">CS-Introduction Mindmap</text><rect fill="#FEFECE" filter="url(#f1nr0bvk6qil11)" height="36.2969" rx="12.5" ry="12.5" style="stroke: #A80036; stroke-width: 1.5;" width="118" x="10" y="446.6289"/><text fill="#000000" font-family="sans-serif" font-size="14" lengthAdjust="spacingAndGlyphs" textLength="98" x="20" y="469.624">计算机科学导论</text><rect fill="#FEFECE" filter="url(#f1nr0bvk6qil11)" height="36.2969" rx="12.5" ry="12.5" style="stroke: #A80036; stroke-width: 1.5;" width="76" x="178" y="74.8906"/><text fill="#000000" font-family="sans-serif" font-size="14" lengthAdjust="spacingAndGlyphs" textLength="56" x="188" y="97.8857">数字系统</text><rect fill="#FEFECE" filter="url(#f1nr0bvk6qil11)" height="36.2969" rx="12.5" ry="12.5" style="stroke: #A80036; stroke-width: 1.5;" width="87.3333" x="304" y="65.7422"/><path d="M315,79.2057 L315,88.5391 L316.1667,88.5391 L316.1667,79.2057 L315,79.2057 M317.3333,79.2057 L317.3333,83.8724 L319.6667,83.8724 L319.6667,85.0391 L324.3333,85.0391 L322,82.7419 L324.3333,80.3724 L320.8333,80.3724 L320.8333,79.2057 L317.3333,79.2057 " fill="#000000" style="stroke: ; stroke-width: 0.0; stroke-dasharray: ;"/><text fill="#000000" font-family="sans-serif" font-size="14" lengthAdjust="spacingAndGlyphs" textLength="56" x="325.3333" y="88.7373">进制转换</text><text fill="#000000" font-family="sans-serif" font-size="14" lengthAdjust="spacingAndGlyphs" textLength="46" x="444.3333" y="61.292">10进制</text><path d="M391.3333,83.8906 L401.3333,83.8906 C416.3333,83.8906 416.3333,56.4453 431.3333,56.4453 L441.3333,56.4453 " fill="none" style="stroke: #A80036; stroke-width: 1.0;"/><text fill="#000000" font-family="sans-serif" font-size="14" lengthAdjust="spacingAndGlyphs" textLength="37" x="444.3333" y="79.5889">2进制</text><path d="M391.3333,83.8906 L401.3333,83.8906 C416.3333,83.8906 416.3333,74.7422 431.3333,74.7422 L441.3333,74.7422 " fill="none" style="stroke: #A80036; stroke-width: 1.0;"/><text fill="#000000" font-family="sans-serif" font-size="14" lengthAdjust="spacingAndGlyphs" textLength="37" x="444.3333" y="97.8857">8进制</text><path d="M391.3333,83.8906 L401.3333,83.8906 C416.3333,83.8906 416.3333,93.0391 431.3333,93.0391 L441.3333,93.0391 " fill="none" style="stroke: #A80036; stroke-width: 1.0;"/><text fill="#000000" font-family="sans-serif" font-size="14" lengthAdjust="spacingAndGlyphs" textLength="46" x="444.3333" y="116.1826">16进制</text><path d="M391.3333,83.8906 L401.3333,83.8906 C416.3333,83.8906 416.3333,111.3359 431.3333,111.3359 L441.3333,111.3359 " fill="none" style="stroke: #A80036; stroke-width: 1.0;"/><path d="M254,93.0391 L264,93.0391 C279,93.0391 279,83.8906 294,83.8906 L304,83.8906 " fill="none" style="stroke: #A80036; stroke-width: 1.0;"/><text fill="#000000" font-family="sans-serif" font-size="14" lengthAdjust="spacingAndGlyphs" textLength="112" x="307" y="134.4795">非位置化数字系统</text><path d="M254,93.0391 L264,93.0391 C279,93.0391 279,129.6328 294,129.6328 L304,129.6328 " fill="none" style="stroke: #A80036; stroke-width: 1.0;"/><path d="M128,464.7773 L138,464.7773 C153,464.7773 153,93.0391 168,93.0391 L178,93.0391 " fill="none" style="stroke: #A80036; stroke-width: 1.0;"/><rect fill="#FEFECE" filter="url(#f1nr0bvk6qil11)" height="36.2969" rx="12.5" ry="12.5" style="stroke: #A80036; stroke-width: 1.5;" width="76" x="178" y="213.875"/><text fill="#000000" font-family="sans-serif" font-size="14" lengthAdjust="spacingAndGlyphs" textLength="56" x="188" y="236.8701">数据存储</text><rect fill="#FEFECE" filter="url(#f1nr0bvk6qil11)" height="36.2969" rx="12.5" ry="12.5" style="stroke: #A80036; stroke-width: 1.5;" width="59.3333" x="304" y="148.7813"/><path d="M315,162.2448 L315,171.5781 L316.1667,171.5781 L316.1667,162.2448 L315,162.2448 M317.3333,162.2448 L317.3333,166.9115 L319.6667,166.9115 L319.6667,168.0781 L324.3333,168.0781 L322,165.781 L324.3333,163.4115 L320.8333,163.4115 L320.8333,162.2448 L317.3333,162.2448 " fill="#000000" style="stroke: ; stroke-width: 0.0; stroke-dasharray: ;"/><text fill="#000000" font-family="sans-serif" font-size="14" lengthAdjust="spacingAndGlyphs" textLength="28" x="325.3333" y="171.7764">单位</text><text fill="#000000" font-family="sans-serif" font-size="14" lengthAdjust="spacingAndGlyphs" textLength="17" x="416.3333" y="153.4795">bit</text><path d="M363.3333,166.9297 L373.3333,166.9297 C388.3333,166.9297 388.3333,148.6328 403.3333,148.6328 L413.3333,148.6328 " fill="none" style="stroke: #A80036; stroke-width: 1.0;"/><text fill="#000000" font-family="sans-serif" font-size="14" lengthAdjust="spacingAndGlyphs" textLength="30" x="416.3333" y="171.7764">byte</text><path d="M363.3333,166.9297 L373.3333,166.9297 C388.3333,166.9297 388.3333,166.9297 403.3333,166.9297 L413.3333,166.9297 " fill="none" style="stroke: #A80036; stroke-width: 1.0;"/><text fill="#000000" font-family="sans-serif" font-size="14" lengthAdjust="spacingAndGlyphs" textLength="53" x="416.3333" y="190.0732">K,M,G,T</text><path d="M363.3333,166.9297 L373.3333,166.9297 C388.3333,166.9297 388.3333,185.2266 403.3333,185.2266 L413.3333,185.2266 " fill="none" style="stroke: #A80036; stroke-width: 1.0;"/><path d="M254,232.0234 L264,232.0234 C279,232.0234 279,166.9297 294,166.9297 L304,166.9297 " fill="none" style="stroke: #A80036; stroke-width: 1.0;"/><rect fill="#FEFECE" filter="url(#f1nr0bvk6qil11)" height="36.2969" rx="12.5" ry="12.5" style="stroke: #A80036; stroke-width: 1.5;" width="48" x="304" y="205.0781"/><text fill="#000000" font-family="sans-serif" font-size="14" lengthAdjust="spacingAndGlyphs" textLength="28" x="314" y="228.0732">文本</text><path d="M406,209.3932 L406,218.7266 L407.1667,218.7266 L407.1667,209.3932 L406,209.3932 M408.3333,209.3932 L408.3333,214.0599 L410.6667,214.0599 L410.6667,215.2266 L415.3333,215.2266 L413,212.9294 L415.3333,210.5599 L411.8333,210.5599 L411.8333,209.3932 L408.3333,209.3932 " fill="#000000" style="stroke: ; stroke-width: 0.0; stroke-dasharray: ;"/><text fill="#000000" font-family="sans-serif" font-size="14" lengthAdjust="spacingAndGlyphs" textLength="34" x="416.3333" y="218.9248">ASCII</text><path d="M352,223.2266 L362,223.2266 C377,223.2266 377,214.0781 392,214.0781 L402,214.0781 " fill="none" style="stroke: #A80036; stroke-width: 1.0;"/><text fill="#000000" font-family="sans-serif" font-size="14" lengthAdjust="spacingAndGlyphs" textLength="57" x="405" y="237.2217">Unicode</text><path d="M352,223.2266 L362,223.2266 C377,223.2266 377,232.375 392,232.375 L402,232.375 " fill="none" style="stroke: #A80036; stroke-width: 1.0;"/><path d="M254,232.0234 L264,232.0234 C279,232.0234 279,223.2266 294,223.2266 L304,223.2266 " fill="none" style="stroke: #A80036; stroke-width: 1.0;"/><rect fill="#FEFECE" filter="url(#f1nr0bvk6qil11)" height="36.2969" rx="12.5" ry="12.5" style="stroke: #A80036; stroke-width: 1.5;" width="48" x="304" y="265.2461"/><text fill="#000000" font-family="sans-serif" font-size="14" lengthAdjust="spacingAndGlyphs" textLength="28" x="314" y="288.2412">数字</text><rect fill="#FEFECE" filter="url(#f1nr0bvk6qil11)" height="36.2969" rx="12.5" ry="12.5" style="stroke: #A80036; stroke-width: 1.5;" width="59.3333" x="402" y="260.6719"/><path d="M413,274.1354 L413,283.4688 L414.1667,283.4688 L414.1667,274.1354 L413,274.1354 M415.3333,274.1354 L415.3333,278.8021 L417.6667,278.8021 L417.6667,279.9688 L422.3333,279.9688 L420,277.6716 L422.3333,275.3021 L418.8333,275.3021 L418.8333,274.1354 L415.3333,274.1354 " fill="#000000" style="stroke: ; stroke-width: 0.0; stroke-dasharray: ;"/><text fill="#000000" font-family="sans-serif" font-size="14" lengthAdjust="spacingAndGlyphs" textLength="28" x="423.3333" y="283.667">整数</text><text fill="#000000" font-family="sans-serif" font-size="14" lengthAdjust="spacingAndGlyphs" textLength="42" x="514.3333" y="255.5186">无符号</text><path d="M461.3333,278.8203 L471.3333,278.8203 C486.3333,278.8203 486.3333,250.6719 501.3333,250.6719 L511.3333,250.6719 " fill="none" style="stroke: #A80036; stroke-width: 1.0;"/><rect fill="#FEFECE" filter="url(#f1nr0bvk6qil11)" height="36.2969" rx="12.5" ry="12.5" style="stroke: #A80036; stroke-width: 1.5;" width="62" x="511.3333" y="269.8203"/><text fill="#000000" font-family="sans-serif" font-size="14" lengthAdjust="spacingAndGlyphs" textLength="42" x="521.3333" y="292.8154">有符号</text><text fill="#000000" font-family="sans-serif" font-size="14" lengthAdjust="spacingAndGlyphs" textLength="28" x="626.3333" y="292.8154">补码</text><path d="M573.3333,287.9688 L583.3333,287.9688 C598.3333,287.9688 598.3333,287.9688 613.3333,287.9688 L623.3333,287.9688 " fill="none" style="stroke: #A80036; stroke-width: 1.0;"/><path d="M461.3333,278.8203 L471.3333,278.8203 C486.3333,278.8203 486.3333,287.9688 501.3333,287.9688 L511.3333,287.9688 " fill="none" style="stroke: #A80036; stroke-width: 1.0;"/><path d="M352,283.3945 L362,283.3945 C377,283.3945 377,278.8203 392,278.8203 L402,278.8203 " fill="none" style="stroke: #A80036; stroke-width: 1.0;"/><text fill="#000000" font-family="sans-serif" font-size="14" lengthAdjust="spacingAndGlyphs" textLength="28" x="405" y="320.9639">实数</text><path d="M352,283.3945 L362,283.3945 C377,283.3945 377,316.1172 392,316.1172 L402,316.1172 " fill="none" style="stroke: #A80036; stroke-width: 1.0;"/><path d="M254,232.0234 L264,232.0234 C279,232.0234 279,283.3945 294,283.3945 L304,283.3945 " fill="none" style="stroke: #A80036; stroke-width: 1.0;"/><path d="M128,464.7773 L138,464.7773 C153,464.7773 153,232.0234 168,232.0234 L178,232.0234 " fill="none" style="stroke: #A80036; stroke-width: 1.0;"/><rect fill="#FEFECE" filter="url(#f1nr0bvk6qil11)" height="36.2969" rx="12.5" ry="12.5" style="stroke: #A80036; stroke-width: 1.5;" width="76" x="178" y="445.75"/><text fill="#000000" font-family="sans-serif" font-size="14" lengthAdjust="spacingAndGlyphs" textLength="56" x="188" y="468.7451">数学运算</text><rect fill="#FEFECE" filter="url(#f1nr0bvk6qil11)" height="36.2969" rx="12.5" ry="12.5" style="stroke: #A80036; stroke-width: 1.5;" width="87.3333" x="304" y="343.7109"/><path d="M315,357.1745 L315,366.5078 L316.1667,366.5078 L316.1667,357.1745 L315,357.1745 M317.3333,357.1745 L317.3333,361.8411 L319.6667,361.8411 L319.6667,363.0078 L324.3333,363.0078 L322,360.7106 L324.3333,358.3411 L320.8333,358.3411 L320.8333,357.1745 L317.3333,357.1745 " fill="#000000" style="stroke: ; stroke-width: 0.0; stroke-dasharray: ;"/><text fill="#000000" font-family="sans-serif" font-size="14" lengthAdjust="spacingAndGlyphs" textLength="56" x="325.3333" y="366.7061">逻辑运算</text><text fill="#000000" font-family="sans-serif" font-size="14" lengthAdjust="spacingAndGlyphs" textLength="14" x="444.3333" y="339.2607">与</text><path d="M391.3333,361.8594 L401.3333,361.8594 C416.3333,361.8594 416.3333,334.4141 431.3333,334.4141 L441.3333,334.4141 " fill="none" style="stroke: #A80036; stroke-width: 1.0;"/><text fill="#000000" font-family="sans-serif" font-size="14" lengthAdjust="spacingAndGlyphs" textLength="14" x="444.3333" y="357.5576">或</text><path d="M391.3333,361.8594 L401.3333,361.8594 C416.3333,361.8594 416.3333,352.7109 431.3333,352.7109 L441.3333,352.7109 " fill="none" style="stroke: #A80036; stroke-width: 1.0;"/><text fill="#000000" font-family="sans-serif" font-size="14" lengthAdjust="spacingAndGlyphs" textLength="14" x="444.3333" y="375.8545">非</text><path d="M391.3333,361.8594 L401.3333,361.8594 C416.3333,361.8594 416.3333,371.0078 431.3333,371.0078 L441.3333,371.0078 " fill="none" style="stroke: #A80036; stroke-width: 1.0;"/><text fill="#000000" font-family="sans-serif" font-size="14" lengthAdjust="spacingAndGlyphs" textLength="28" x="444.3333" y="394.1514">异或</text><path d="M391.3333,361.8594 L401.3333,361.8594 C416.3333,361.8594 416.3333,389.3047 431.3333,389.3047 L441.3333,389.3047 " fill="none" style="stroke: #A80036; stroke-width: 1.0;"/><path d="M254,463.8984 L264,463.8984 C279,463.8984 279,361.8594 294,361.8594 L304,361.8594 " fill="none" style="stroke: #A80036; stroke-width: 1.0;"/><rect fill="#FEFECE" filter="url(#f1nr0bvk6qil11)" height="36.2969" rx="12.5" ry="12.5" style="stroke: #A80036; stroke-width: 1.5;" width="76" x="304" y="436.6016"/><text fill="#000000" font-family="sans-serif" font-size="14" lengthAdjust="spacingAndGlyphs" textLength="56" x="314" y="459.5967">移位运算</text><rect fill="#FEFECE" filter="url(#f1nr0bvk6qil11)" height="36.2969" rx="12.5" ry="12.5" style="stroke: #A80036; stroke-width: 1.5;" width="76" x="430" y="408.4531"/><text fill="#000000" font-family="sans-serif" font-size="14" lengthAdjust="spacingAndGlyphs" textLength="56" x="440" y="431.4482">逻辑移位</text><text fill="#000000" font-family="sans-serif" font-size="14" lengthAdjust="spacingAndGlyphs" textLength="51" x="559" y="422.2998">用0填充</text><path d="M506,426.6016 L516,426.6016 C531,426.6016 531,417.4531 546,417.4531 L556,417.4531 " fill="none" style="stroke: #A80036; stroke-width: 1.0;"/><text fill="#000000" font-family="sans-serif" font-size="14" lengthAdjust="spacingAndGlyphs" textLength="98" x="559" y="440.5967">用于无符号整数</text><path d="M506,426.6016 L516,426.6016 C531,426.6016 531,435.75 546,435.75 L556,435.75 " fill="none" style="stroke: #A80036; stroke-width: 1.0;"/><path d="M380,454.75 L390,454.75 C405,454.75 405,426.6016 420,426.6016 L430,426.6016 " fill="none" style="stroke: #A80036; stroke-width: 1.0;"/><rect fill="#FEFECE" filter="url(#f1nr0bvk6qil11)" height="36.2969" rx="12.5" ry="12.5" style="stroke: #A80036; stroke-width: 1.5;" width="76" x="430" y="464.75"/><text fill="#000000" font-family="sans-serif" font-size="14" lengthAdjust="spacingAndGlyphs" textLength="56" x="440" y="487.7451">算术移位</text><text fill="#000000" font-family="sans-serif" font-size="14" lengthAdjust="spacingAndGlyphs" textLength="84" x="559" y="478.5967">用符号位填充</text><path d="M506,482.8984 L516,482.8984 C531,482.8984 531,473.75 546,473.75 L556,473.75 " fill="none" style="stroke: #A80036; stroke-width: 1.0;"/><text fill="#000000" font-family="sans-serif" font-size="14" lengthAdjust="spacingAndGlyphs" textLength="84" x="559" y="496.8936">用于补码整数</text><path d="M506,482.8984 L516,482.8984 C531,482.8984 531,492.0469 546,492.0469 L556,492.0469 " fill="none" style="stroke: #A80036; stroke-width: 1.0;"/><path d="M380,454.75 L390,454.75 C405,454.75 405,482.8984 420,482.8984 L430,482.8984 " fill="none" style="stroke: #A80036; stroke-width: 1.0;"/><path d="M254,463.8984 L264,463.8984 C279,463.8984 279,454.75 294,454.75 L304,454.75 " fill="none" style="stroke: #A80036; stroke-width: 1.0;"/><rect fill="#FEFECE" filter="url(#f1nr0bvk6qil11)" height="36.2969" rx="12.5" ry="12.5" style="stroke: #A80036; stroke-width: 1.5;" width="87.3333" x="304" y="538.6406"/><path d="M315,552.1042 L315,561.4375 L316.1667,561.4375 L316.1667,552.1042 L315,552.1042 M317.3333,552.1042 L317.3333,556.7708 L319.6667,556.7708 L319.6667,557.9375 L324.3333,557.9375 L322,555.6403 L324.3333,553.2708 L320.8333,553.2708 L320.8333,552.1042 L317.3333,552.1042 " fill="#000000" style="stroke: ; stroke-width: 0.0; stroke-dasharray: ;"/><text fill="#000000" font-family="sans-serif" font-size="14" lengthAdjust="spacingAndGlyphs" textLength="56" x="325.3333" y="561.6357">算术运算</text><text fill="#000000" font-family="sans-serif" font-size="14" lengthAdjust="spacingAndGlyphs" textLength="14" x="444.3333" y="525.042">加</text><path d="M391.3333,556.7891 L401.3333,556.7891 C416.3333,556.7891 416.3333,520.1953 431.3333,520.1953 L441.3333,520.1953 " fill="none" style="stroke: #A80036; stroke-width: 1.0;"/><text fill="#000000" font-family="sans-serif" font-size="14" lengthAdjust="spacingAndGlyphs" textLength="14" x="444.3333" y="543.3389">减</text><path d="M391.3333,556.7891 L401.3333,556.7891 C416.3333,556.7891 416.3333,538.4922 431.3333,538.4922 L441.3333,538.4922 " fill="none" style="stroke: #A80036; stroke-width: 1.0;"/><text fill="#000000" font-family="sans-serif" font-size="14" lengthAdjust="spacingAndGlyphs" textLength="14" x="444.3333" y="561.6357">乘</text><path d="M391.3333,556.7891 L401.3333,556.7891 C416.3333,556.7891 416.3333,556.7891 431.3333,556.7891 L441.3333,556.7891 " fill="none" style="stroke: #A80036; stroke-width: 1.0;"/><text fill="#000000" font-family="sans-serif" font-size="14" lengthAdjust="spacingAndGlyphs" textLength="14" x="444.3333" y="579.9326">除</text><path d="M391.3333,556.7891 L401.3333,556.7891 C416.3333,556.7891 416.3333,575.0859 431.3333,575.0859 L441.3333,575.0859 " fill="none" style="stroke: #A80036; stroke-width: 1.0;"/><text fill="#000000" font-family="sans-serif" font-size="14" lengthAdjust="spacingAndGlyphs" textLength="28" x="444.3333" y="598.2295">取余</text><path d="M391.3333,556.7891 L401.3333,556.7891 C416.3333,556.7891 416.3333,593.3828 431.3333,593.3828 L441.3333,593.3828 " fill="none" style="stroke: #A80036; stroke-width: 1.0;"/><path d="M254,463.8984 L264,463.8984 C279,463.8984 279,556.7891 294,556.7891 L304,556.7891 " fill="none" style="stroke: #A80036; stroke-width: 1.0;"/><path d="M128,464.7773 L138,464.7773 C153,464.7773 153,463.8984 168,463.8984 L178,463.8984 " fill="none" style="stroke: #A80036; stroke-width: 1.0;"/><rect fill="#FEFECE" filter="url(#f1nr0bvk6qil11)" height="36.2969" rx="12.5" ry="12.5" style="stroke: #A80036; stroke-width: 1.5;" width="90" x="178" y="723.3672"/><text fill="#000000" font-family="sans-serif" font-size="14" lengthAdjust="spacingAndGlyphs" textLength="70" x="188" y="746.3623">计算机组成</text><rect fill="#FEFECE" filter="url(#f1nr0bvk6qil11)" height="36.2969" rx="12.5" ry="12.5" style="stroke: #A80036; stroke-width: 1.5;" width="90" x="318" y="612.5313"/><text fill="#000000" font-family="sans-serif" font-size="14" lengthAdjust="spacingAndGlyphs" textLength="70" x="328" y="635.5264">中央处理器</text><text fill="#000000" font-family="sans-serif" font-size="14" lengthAdjust="spacingAndGlyphs" textLength="84" x="461" y="617.2295">算术逻辑单元</text><path d="M408,630.6797 L418,630.6797 C433,630.6797 433,612.3828 448,612.3828 L458,612.3828 " fill="none" style="stroke: #A80036; stroke-width: 1.0;"/><text fill="#000000" font-family="sans-serif" font-size="14" lengthAdjust="spacingAndGlyphs" textLength="42" x="461" y="635.5264">寄存器</text><path d="M408,630.6797 L418,630.6797 C433,630.6797 433,630.6797 448,630.6797 L458,630.6797 " fill="none" style="stroke: #A80036; stroke-width: 1.0;"/><text fill="#000000" font-family="sans-serif" font-size="14" lengthAdjust="spacingAndGlyphs" textLength="56" x="461" y="653.8232">控制单元</text><path d="M408,630.6797 L418,630.6797 C433,630.6797 433,648.9766 448,648.9766 L458,648.9766 " fill="none" style="stroke: #A80036; stroke-width: 1.0;"/><path d="M268,741.5156 L278,741.5156 C293,741.5156 293,630.6797 308,630.6797 L318,630.6797 " fill="none" style="stroke: #A80036; stroke-width: 1.0;"/><rect fill="#FEFECE" filter="url(#f1nr0bvk6qil11)" height="36.2969" rx="12.5" ry="12.5" style="stroke: #A80036; stroke-width: 1.5;" width="76" x="318" y="668.8281"/><text fill="#000000" font-family="sans-serif" font-size="14" lengthAdjust="spacingAndGlyphs" textLength="56" x="328" y="691.8232">主存储器</text><text fill="#000000" font-family="sans-serif" font-size="14" lengthAdjust="spacingAndGlyphs" textLength="56" x="447" y="673.5264">地址空间</text><path d="M394,686.9766 L404,686.9766 C419,686.9766 419,668.6797 434,668.6797 L444,668.6797 " fill="none" style="stroke: #A80036; stroke-width: 1.0;"/><text fill="#000000" font-family="sans-serif" font-size="14" lengthAdjust="spacingAndGlyphs" textLength="56" x="447" y="691.8232">高速缓存</text><path d="M394,686.9766 L404,686.9766 C419,686.9766 419,686.9766 434,686.9766 L444,686.9766 " fill="none" style="stroke: #A80036; stroke-width: 1.0;"/><text fill="#000000" font-family="sans-serif" font-size="14" lengthAdjust="spacingAndGlyphs" textLength="28" x="447" y="710.1201">内存</text><path d="M394,686.9766 L404,686.9766 C419,686.9766 419,705.2734 434,705.2734 L444,705.2734 " fill="none" style="stroke: #A80036; stroke-width: 1.0;"/><path d="M268,741.5156 L278,741.5156 C293,741.5156 293,686.9766 308,686.9766 L318,686.9766 " fill="none" style="stroke: #A80036; stroke-width: 1.0;"/><rect fill="#FEFECE" filter="url(#f1nr0bvk6qil11)" height="36.2969" rx="12.5" ry="12.5" style="stroke: #A80036; stroke-width: 1.5;" width="76" x="318" y="751.1641"/><text fill="#000000" font-family="sans-serif" font-size="14" lengthAdjust="spacingAndGlyphs" textLength="56" x="328" y="774.1592">输入输出</text><text fill="#000000" font-family="sans-serif" font-size="14" lengthAdjust="spacingAndGlyphs" textLength="70" x="447" y="746.7139">非存储设备</text><text fill="#000000" font-family="sans-serif" font-size="14" lengthAdjust="spacingAndGlyphs" textLength="28" x="570" y="728.417">键盘</text><path d="M517,741.8672 L527,741.8672 C542,741.8672 542,723.5703 557,723.5703 L567,723.5703 " fill="none" style="stroke: #A80036; stroke-width: 1.0;"/><text fill="#000000" font-family="sans-serif" font-size="14" lengthAdjust="spacingAndGlyphs" textLength="42" x="570" y="746.7139">显示器</text><path d="M517,741.8672 L527,741.8672 C542,741.8672 542,741.8672 557,741.8672 L567,741.8672 " fill="none" style="stroke: #A80036; stroke-width: 1.0;"/><text fill="#000000" font-family="sans-serif" font-size="14" lengthAdjust="spacingAndGlyphs" textLength="42" x="570" y="765.0107">打印机</text><path d="M517,741.8672 L527,741.8672 C542,741.8672 542,760.1641 557,760.1641 L567,760.1641 " fill="none" style="stroke: #A80036; stroke-width: 1.0;"/><path d="M394,769.3125 L404,769.3125 C419,769.3125 419,741.8672 434,741.8672 L444,741.8672 " fill="none" style="stroke: #A80036; stroke-width: 1.0;"/><text fill="#000000" font-family="sans-serif" font-size="14" lengthAdjust="spacingAndGlyphs" textLength="56" x="447" y="801.6045">存储设备</text><text fill="#000000" font-family="sans-serif" font-size="14" lengthAdjust="spacingAndGlyphs" textLength="28" x="556" y="783.3076">硬盘</text><path d="M503,796.7578 L513,796.7578 C528,796.7578 528,778.4609 543,778.4609 L553,778.4609 " fill="none" style="stroke: #A80036; stroke-width: 1.0;"/><text fill="#000000" font-family="sans-serif" font-size="14" lengthAdjust="spacingAndGlyphs" textLength="28" x="556" y="801.6045">光盘</text><path d="M503,796.7578 L513,796.7578 C528,796.7578 528,796.7578 543,796.7578 L553,796.7578 " fill="none" style="stroke: #A80036; stroke-width: 1.0;"/><text fill="#000000" font-family="sans-serif" font-size="14" lengthAdjust="spacingAndGlyphs" textLength="29" x="556" y="819.9014">USB</text><path d="M503,796.7578 L513,796.7578 C528,796.7578 528,815.0547 543,815.0547 L553,815.0547 " fill="none" style="stroke: #A80036; stroke-width: 1.0;"/><path d="M394,769.3125 L404,769.3125 C419,769.3125 419,796.7578 434,796.7578 L444,796.7578 " fill="none" style="stroke: #A80036; stroke-width: 1.0;"/><path d="M268,741.5156 L278,741.5156 C293,741.5156 293,769.3125 308,769.3125 L318,769.3125 " fill="none" style="stroke: #A80036; stroke-width: 1.0;"/><rect fill="#FEFECE" filter="url(#f1nr0bvk6qil11)" height="36.2969" rx="12.5" ry="12.5" style="stroke: #A80036; stroke-width: 1.5;" width="129.3333" x="318" y="834.2031"/><path d="M329,847.6667 L329,857 L330.1667,857 L330.1667,847.6667 L329,847.6667 M331.3333,847.6667 L331.3333,852.3333 L333.6667,852.3333 L333.6667,853.5 L338.3333,853.5 L336,851.2028 L338.3333,848.8333 L334.8333,848.8333 L334.8333,847.6667 L331.3333,847.6667 " fill="#000000" style="stroke: ; stroke-width: 0.0; stroke-dasharray: ;"/><text fill="#000000" font-family="sans-serif" font-size="14" lengthAdjust="spacingAndGlyphs" textLength="98" x="339.3333" y="857.1982">程序执行的过程</text><path d="M268,741.5156 L278,741.5156 C293,741.5156 293,852.3516 308,852.3516 L318,852.3516 " fill="none" style="stroke: #A80036; stroke-width: 1.0;"/><path d="M128,464.7773 L138,464.7773 C153,464.7773 153,741.5156 168,741.5156 L178,741.5156 " fill="none" style="stroke: #A80036; stroke-width: 1.0;"/><rect fill="#FEFECE" filter="url(#f1nr0bvk6qil11)" height="36.2969" rx="12.5" ry="12.5" style="stroke: #A80036; stroke-width: 1.5;" width="90" x="178" y="779.6641"/><text fill="#000000" font-family="sans-serif" font-size="14" lengthAdjust="spacingAndGlyphs" textLength="70" x="188" y="802.6592">计算机网络</text><path d="M128,464.7773 L138,464.7773 C153,464.7773 153,797.8125 168,797.8125 L178,797.8125 " fill="none" style="stroke: #A80036; stroke-width: 1.0;"/><rect fill="#FEFECE" filter="url(#f1nr0bvk6qil11)" height="36.2969" rx="12.5" ry="12.5" style="stroke: #A80036; stroke-width: 1.5;" width="76" x="178" y="835.9609"/><text fill="#000000" font-family="sans-serif" font-size="14" lengthAdjust="spacingAndGlyphs" textLength="56" x="188" y="858.9561">操作系统</text><path d="M128,464.7773 L138,464.7773 C153,464.7773 153,854.1094 168,854.1094 L178,854.1094 " fill="none" style="stroke: #A80036; stroke-width: 1.0;"/><!--MD5=[69d5347990155a214a311ff381ea2271]
@startmindmap
title CS-Introduction Mindmap
* 计算机科学导论
** 数字系统
*** <&flag>进制转换
****_ 10进制
****_ 2进制
****_ 8进制
****_ 16进制
***_ 非位置化数字系统
** 数据存储
*** <&flag>单位
****_ bit
****_ byte
****_ K,M,G,T
*** 文本
****_ <&flag>ASCII
****_ Unicode
*** 数字
**** <&flag>整数
*****_ 无符号
***** 有符号
******_ 补码
****_ 实数
** 数学运算
*** <&flag>逻辑运算
****_ 与
****_ 或
****_ 非
****_ 异或
*** 移位运算
**** 逻辑移位
*****_ 用0填充
*****_ 用于无符号整数
**** 算术移位
*****_ 用符号位填充
*****_ 用于补码整数
*** <&flag>算术运算
****_ 加
****_ 减
****_ 乘
****_ 除
****_ 取余
** 计算机组成
*** 中央处理器
****_ 算术逻辑单元
****_ 寄存器
****_ 控制单元
*** 主存储器
****_ 地址空间
****_ 高速缓存
****_ 内存
*** 输入输出
****_ 非存储设备
*****_ 键盘
*****_ 显示器
*****_ 打印机
****_ 存储设备
*****_ 硬盘
*****_ 光盘
*****_ USB
*** <&flag>程序执行的过程
** 计算机网络
** 操作系统
@endmindmap

PlantUML version 1.2020.00(Sat Jan 11 20:30:53 CST 2020)
(GPL source distribution)
Java Runtime: OpenJDK Runtime Environment
JVM: OpenJDK 64-Bit Server VM
Java Version: 11.0.6+10-post-Ubuntu-1ubuntu119.10.1
Operating System: Linux
Default Encoding: UTF-8
Language: en
Country: US
--></g></svg>